<svg width="183" height="176" viewBox="0 0 183 176" fill="none" xmlns="http://www.w3.org/2000/svg">
<g clip-path="url(#clip0_378_276)">
<path d="M0 0H183V176H0V0Z" fill="white"/>
<path d="M134.122 84.3341C135.679 84.1765 137.255 84.5496 138.682 85.13C140.472 85.8579 142.137 86.8973 143.849 87.7836L156.586 94.4964L167.593 100.219C169.521 101.209 171.714 102.099 173.486 103.324C175.388 104.639 176.671 106.842 177.015 109.05C177.266 110.656 177.071 112.266 176.432 113.769C175.574 115.791 174.239 117.682 173.204 119.632C169.862 125.924 166.354 132.137 162.934 138.391L152.893 156.667L149.869 162.133C149.174 163.398 148.552 164.746 147.654 165.891C146.321 167.591 144.165 168.891 141.957 169.163C140.602 169.33 139.217 169.199 137.942 168.72C135.935 167.964 134.015 166.759 132.103 165.79L118.567 158.833L108.004 153.45C105.949 152.406 103.589 151.446 101.766 150.064C99.8517 148.613 99.0904 146.51 98.8091 144.269C97.8294 144.281 96.8488 144.364 95.8693 144.399C82.9756 144.858 70.6342 140.138 61.2353 131.737C52.6062 123.821 47.0903 112.626 46.5139 101.148C45.4905 102.149 43.6912 104.251 42.5355 104.868C42.2258 105.034 41.7938 105.179 41.448 105.023C41.1535 104.89 40.8737 104.516 40.7904 104.218C40.7049 103.912 40.7487 103.584 40.9226 103.314C41.1714 102.927 46.2652 97.9964 46.9066 97.4671C47.1175 97.293 47.3578 97.1446 47.6321 97.0852C47.9504 97.0162 48.233 97.0924 48.5046 97.257C49.1412 97.6432 54.1467 102.397 54.8251 103.158C55.0279 103.386 55.2806 103.677 55.3308 103.985C55.3827 104.304 55.2979 104.613 55.093 104.869C54.8803 105.134 54.5497 105.324 54.201 105.356C53.9978 105.375 53.7809 105.334 53.6056 105.232C52.1995 104.415 50.2417 101.985 48.8408 100.817C48.866 101.413 48.9346 102.011 49.0002 102.604C50.2629 114.021 56.1851 124.981 65.5179 132.206C74.862 139.439 86.9637 143.07 98.9245 141.815C99.481 140.368 100.258 138.995 100.973 137.616C102.307 135.045 103.693 132.499 105.066 129.947L117.901 106.365L124.466 94.352C125.584 92.2766 126.987 89.1543 128.401 87.3584C129.788 85.5948 131.886 84.6443 134.122 84.3341Z" fill="black"/>
<path d="M134.348 86.8219C135.598 86.7145 136.791 87.0657 137.923 87.546C139.621 88.2667 141.222 89.232 142.855 90.0821L153.809 95.843L165.701 101.963C167.637 102.955 169.69 103.871 171.549 104.983C173.062 105.888 174.022 107.167 174.424 108.839C174.711 110.032 174.693 111.328 174.233 112.48C173.449 114.449 172.167 116.343 171.144 118.212L164.365 130.596C159.75 139.093 155.134 147.594 150.363 156.01C148.88 158.625 147.65 161.404 146.011 163.936C144.973 165.539 143.611 166.361 141.718 166.791C140.642 166.896 139.738 166.83 138.72 166.428C137.786 166.06 136.903 165.541 136.017 165.08L132.565 163.31L121.179 157.424L109.788 151.598C107.906 150.652 105.212 149.55 103.546 148.375C102.349 147.53 101.547 146.04 101.319 144.647C101.128 143.482 101.388 142.378 101.863 141.307C103.012 138.719 104.561 136.301 105.881 133.794C109.798 126.354 113.904 119.006 117.902 111.606L126.399 96.0277L128.668 91.8551C129.216 90.8388 129.736 89.7395 130.446 88.8179C131.39 87.5919 132.83 87.0459 134.348 86.8219Z" fill="white"/>
<path d="M134.004 90.0851C134.908 90.0239 135.658 90.2208 136.479 90.5598C137.846 91.1234 139.139 91.8693 140.451 92.5403L148.573 96.7526L160.567 103.02C163.213 104.394 165.921 105.703 168.51 107.169C169.701 107.844 170.758 108.707 171.088 110.066C171.325 111.039 171.196 111.94 170.811 112.86C169.986 114.83 168.783 116.737 167.767 118.627L160.192 132.405L150.858 149.508C149.281 152.438 147.69 155.358 146.056 158.259C145.424 159.381 144.844 160.557 144.159 161.649C143.554 162.612 142.801 162.98 141.699 163.241C140.895 163.293 140.23 163.105 139.496 162.816C138.092 162.264 136.731 161.51 135.38 160.844L128.561 157.482L111.548 148.805C109.929 147.972 108.271 147.204 106.659 146.361C105.694 145.856 104.855 145.213 104.556 144.143C104.334 143.349 104.374 142.502 104.691 141.739C105.061 140.848 105.613 139.993 106.077 139.143L108.666 134.397L115.681 121.473L127.516 99.7429L130.767 93.7792C131.225 92.9461 131.647 92.0544 132.157 91.2519C132.616 90.529 133.179 90.2812 134.004 90.0851Z" fill="black"/>
<path d="M134.462 92.3385C137.025 93.478 139.514 94.8441 142.006 96.1247L155.911 103.353L164.329 107.769C165.667 108.473 167.176 109.11 168.408 109.967C168.712 110.579 168.789 111.121 168.542 111.763C167.949 113.304 166.558 115.544 165.729 117.074L159.702 128.135L148.031 149.465C146.142 152.903 144.312 156.403 142.33 159.79C142.089 160.202 141.851 160.775 141.394 160.989C141.081 160.912 140.773 160.806 140.482 160.67C137.428 159.239 134.436 157.663 131.425 156.148L114.916 147.775L110.228 145.412C109.189 144.894 107.886 144.392 107.012 143.645C106.856 143.089 107.102 142.593 107.337 142.091C108.057 140.56 109.015 139.114 109.807 137.612C112.538 132.433 115.368 127.299 118.168 122.152L129.315 101.731C131.03 98.5984 132.664 95.4293 134.462 92.3385Z" fill="white"/>
<path d="M128.362 138.465C129.707 138.324 131.138 138.58 132.297 139.262C133.586 140.021 134.535 141.306 134.871 142.721C135.226 144.212 134.963 145.718 134.116 147.012C133.149 148.488 131.786 149.229 130.05 149.603C128.632 149.768 127.12 149.577 125.906 148.812C124.586 147.98 123.676 146.563 123.379 145.082C123.075 143.57 123.46 142.045 124.369 140.786C125.344 139.436 126.715 138.76 128.362 138.465Z" fill="black"/>
<path d="M128.574 140.864C129.374 140.813 130.066 140.82 130.802 141.188C131.579 141.576 132.156 142.262 132.414 143.064C132.689 143.918 132.594 144.854 132.139 145.635C131.612 146.541 130.788 147.01 129.779 147.283C129.042 147.383 128.423 147.359 127.736 147.05C126.882 146.666 126.236 145.933 125.937 145.077C125.641 144.228 125.719 143.312 126.165 142.525C126.707 141.567 127.527 141.149 128.574 140.864Z" fill="white"/>
<path d="M33.7399 9.74754C35.1088 9.68823 36.4672 9.7379 37.8311 9.85464C45.2843 10.4925 52.4654 14.156 57.2565 19.6678C62.4368 25.6279 64.7804 33.2132 64.0659 40.9282C72.1252 35.0769 81.5674 31.2391 91.7438 30.8496C104.709 30.3534 117.199 34.6845 126.736 43.1791C134.639 50.2173 139.708 59.8162 141.238 70.0393C141.603 72.4827 141.673 74.9263 141.771 77.3894C142.805 76.4874 144.683 74.1239 145.893 73.734C146.222 73.6279 146.584 73.6707 146.882 73.8402C147.176 74.0074 147.391 74.2786 147.461 74.6023C147.519 74.8718 147.466 75.1719 147.304 75.3987C146.71 76.2315 141.834 80.8417 140.822 81.584C140.67 81.6957 140.478 81.7875 140.285 81.8078C139.86 81.8523 139.577 81.6878 139.26 81.4398C138.198 80.6107 137.253 79.5665 136.272 78.6444C135.236 77.6699 133.949 76.673 133.074 75.5699C132.936 75.3962 132.872 75.164 132.857 74.9484C132.835 74.6183 132.946 74.2941 133.18 74.0502C133.404 73.817 133.695 73.6858 134.027 73.6881C134.367 73.6905 134.717 73.8996 134.977 74.0904C135.547 74.5076 136.019 75.0804 136.524 75.5684C137.409 76.4222 138.327 77.2469 139.233 78.0795C139.349 71.8548 138.304 65.8619 135.892 60.0728C131.4 49.292 122.374 41.0404 111.362 36.5053C106.705 34.6795 101.757 33.5836 96.7343 33.2933C85.7074 32.656 74.8368 36.0552 66.1046 42.5048C63.8263 44.1874 61.8733 46.1473 59.7302 47.9696C61.1215 50.6991 62.3133 53.5333 63.5585 56.3271L67.5222 65.063L70.5592 71.7852C71.2095 73.1958 71.946 74.6071 72.4987 76.0532C72.715 76.6189 72.8538 77.1861 72.8999 77.7876C73.0558 79.8194 72.3377 81.876 70.9515 83.4143C70.2727 84.1675 69.4841 84.8055 68.5728 85.2791C67.1705 86.0081 65.6314 86.5512 64.1771 87.1828L54.8768 91.2179L45.1608 95.4426C43.3832 96.2207 41.6093 97.083 39.7905 97.7643C38.9538 98.0776 38.1548 98.332 37.2541 98.3932C34.6247 98.572 32.3 97.9242 30.2962 96.2329C29.394 95.4717 28.7047 94.602 28.1706 93.5706C26.6524 90.6401 25.3055 87.2071 23.9878 84.1582L16.959 67.9785L10.7735 54.0632C9.54465 51.3342 8.13832 48.5936 7.13489 45.7809C6.41599 43.7658 6.03374 41.5225 5.89744 39.4014C5.4339 32.1876 8.10552 24.6361 13.0898 19.2271C17.3056 14.6521 22.9849 11.3702 29.2521 10.2154C30.734 9.94229 32.2361 9.83405 33.7399 9.74754Z" fill="black"/>
<path d="M33.6916 12.0671C35.6607 11.9124 37.8202 12.1491 39.7624 12.4978C46.673 13.7389 53.0378 17.6933 56.9944 23.2876C61.2304 29.2773 62.5532 36.3682 61.1636 43.4348C60.2847 44.3017 57.1628 46.4191 57.0454 47.4484C57.0111 47.7499 57.2051 48.1694 57.3199 48.4493C58.2249 50.6556 59.3125 52.8211 60.2904 55.0006L67.7536 71.5627C68.5254 73.2809 69.9403 75.7573 70.3249 77.5056C70.5305 78.4402 70.3919 79.4323 70.0386 80.3194C69.6495 81.2952 69.0608 82.036 68.17 82.6414C66.4524 83.8084 63.0401 85.0495 61.0219 85.9283L46.1667 92.3628C44.0951 93.2756 38.7849 95.9094 36.8135 96.0545C35.1177 96.1795 33.3601 95.6721 32.0698 94.5972C31.3287 93.9798 30.7434 93.2694 30.3079 92.4254C28.8843 89.6668 27.7807 86.6689 26.5371 83.8251L18.7557 66.0034L12.9068 52.8493C11.7435 50.2857 10.4305 47.7564 9.46702 45.1147C8.83778 43.3894 8.54718 41.4964 8.40351 39.679C7.87769 33.0271 10.1554 26.0711 14.7041 21.0161C19.6015 15.5736 26.2755 12.5754 33.6916 12.0671Z" fill="white"/>
<path d="M57.0129 64.1243C57.6851 64.0831 58.3422 64.1683 58.9443 64.4726C59.3337 64.6694 59.7177 64.9562 59.9547 65.3172C60.847 66.6751 61.6603 68.9704 62.3416 70.5198C63.0673 72.17 64.255 74.4535 64.7181 76.1303C64.9606 77.0088 64.8667 77.895 64.3731 78.678C64.0105 79.253 63.4799 79.6795 62.8723 80.002C61.7355 80.6051 60.4222 81.0179 59.2318 81.5339L49.4152 85.7189L41.7212 89.0247C40.2884 89.6369 38.7764 90.4327 37.2493 90.7645C36.4581 90.771 35.6849 90.6237 35.0072 90.2148C34.6079 89.974 34.2146 89.643 33.9574 89.2605C33.0378 87.8936 32.339 85.7562 31.6814 84.22C30.9108 82.4196 29.8219 80.3643 29.3497 78.4874C29.1431 77.6662 29.116 76.8618 29.6144 76.124C29.9899 75.568 30.6572 75.189 31.2623 74.8961C32.6137 74.2423 34.0845 73.7287 35.4758 73.1485L43.9461 69.564L51.5256 66.3362C53.124 65.6451 55.3884 64.4375 57.0129 64.1243Z" fill="black"/>
<path d="M57.318 66.5146C57.4747 66.5476 57.6202 66.5812 57.7676 66.6429C57.9698 66.7276 58.0486 66.8608 58.151 67.0402C58.7791 68.1401 59.2141 69.436 59.7118 70.6003L62.4602 76.9372C62.3566 77.1654 62.242 77.4401 62.0742 77.6317C61.9559 77.7668 61.8531 77.8175 61.6889 77.8888L48.524 83.4727C44.8622 85.062 41.1972 86.8153 37.4618 88.2271C37.2144 88.3206 37.0036 88.3588 36.7394 88.372C36.5822 88.3266 36.4244 88.2878 36.28 88.2108C36.0825 88.1054 36.0364 88.0334 35.9351 87.84C35.1001 86.2449 34.4789 84.4481 33.7653 82.7919C33.0185 81.0587 32.0157 79.2638 31.5293 77.4559C32.3335 76.953 33.318 76.641 34.1994 76.2772L39.0507 74.2631L57.318 66.5146Z" fill="white"/>
<path d="M46.2827 73.1526C47.2309 73.083 48.0988 73.1366 48.9685 73.5453C50.0705 74.0632 50.8841 75.0071 51.2473 76.1303C51.6106 77.2541 51.4994 78.4838 50.9004 79.5137C50.2022 80.7139 49.0906 81.3433 47.7683 81.719C46.656 81.9186 45.5612 81.7615 44.595 81.1795C43.5318 80.5389 42.7823 79.4905 42.5314 78.3089C42.2869 77.1566 42.5875 75.9122 43.2754 74.9465C44.0175 73.9042 45.0287 73.3996 46.2827 73.1526Z" fill="black"/>
<path d="M46.582 75.5502C46.9094 75.5373 47.2302 75.5225 47.5462 75.6207C48.0576 75.7797 48.4842 76.1432 48.7119 76.6103C48.9385 77.0754 48.9667 77.6301 48.7766 78.111C48.5078 78.7916 48.0183 79.0893 47.3469 79.3571C47.0029 79.3598 46.6297 79.3822 46.3007 79.2727C45.751 79.0896 45.274 78.7125 45.0514 78.188C44.87 77.7609 44.8726 77.2702 45.0569 76.8448C45.3555 76.1547 45.8933 75.8317 46.582 75.5502Z" fill="white"/>
<path d="M34.5505 16.7953C39.5791 16.4968 45.189 18.6407 48.9937 21.7236C53.3609 25.262 56.258 30.6209 56.6971 36.1032C57.1303 41.509 55.2088 46.9145 51.5164 50.9999C47.3228 55.64 41.9593 57.7405 35.6846 58.1606C30.1024 58.2983 24.4871 56.2299 20.3328 52.6633C16.265 49.1714 13.5393 44.0251 13.2427 38.7616C12.93 33.2126 14.9389 27.8276 18.7959 23.7002C22.89 19.3191 28.4979 17.1089 34.5505 16.7953Z" fill="black"/>
<path d="M34.0058 19.2001C34.0927 19.1918 34.1797 19.1853 34.2669 19.1813C39.2556 18.9589 44.4629 20.8987 48.0991 24.1528C51.8414 27.5016 54.111 32.0591 54.2561 36.9862C54.4026 41.956 52.5589 46.5275 48.9909 50.125C45.6281 53.5154 40.8156 55.6704 35.9314 55.7914C31.0962 55.8648 26.325 54.4893 22.5994 51.4538C18.6152 48.2079 16.143 43.8253 15.7221 38.805C15.3332 34.1664 17.022 29.2659 20.1847 25.742C23.7167 21.8064 28.6415 19.5657 34.0058 19.2001Z" fill="white"/>
<path d="M33.6431 24.2657C34.5896 24.2435 35.5485 24.2155 36.4826 24.3859C37.1088 24.8178 37.358 25.1445 37.5461 25.8635C37.9942 25.9865 38.4363 26.1257 38.8663 26.2992C40.7901 27.0752 42.8569 28.8049 43.6036 30.7207C43.7689 31.1445 43.8184 31.6257 43.5984 32.0419C43.1178 32.95 39.5824 34.4462 38.5071 34.8154C38.1579 34.7057 37.8105 34.603 37.4543 34.5163L37.4414 34.6006C37.9577 34.878 38.565 34.8647 39.0986 35.0923C41.0271 35.9147 42.5754 37.3475 43.3203 39.2585C44.0995 41.2578 44.0024 43.4643 43.0649 45.3986C41.9746 47.6478 40.0452 48.8823 37.6886 49.695L37.5848 50.3646C37.4859 50.5531 37.3862 50.7472 37.2631 50.9225C36.9212 51.4091 36.2149 51.6506 35.6379 51.7336C34.6848 51.8707 33.1141 51.9372 32.3296 51.3269C31.7327 50.8625 31.6003 50.2842 31.5309 49.5802C28.8256 48.5816 27.3827 47.161 26.0021 44.7209C25.6701 44.1341 25.2492 43.3425 25.4921 42.6629C25.814 41.7622 28.6903 40.606 29.5512 40.1853C28.3184 39.5361 27.3936 38.4593 26.8054 37.244C25.8227 35.2131 25.736 32.8973 26.5604 30.8025C27.5192 28.3661 29.3081 27.1132 31.6869 26.0793C31.7305 25.6098 31.8251 25.1113 32.1644 24.7475C32.5481 24.336 33.1104 24.3083 33.6431 24.2657Z" fill="black"/>
<path d="M33.88 26.6543L35.2892 26.6416L35.2899 27.8839C35.9343 27.9106 36.5963 28.034 37.2141 28.2108C38.8689 28.6847 40.1969 29.6492 41.0265 31.1136C40.1551 31.4025 39.354 31.797 38.5551 32.2358C38.0921 31.4603 37.4766 30.8549 36.5991 30.5179C35.5567 30.1174 33.8786 30.1576 32.8566 30.6086C32.0431 30.9675 31.4117 31.6186 31.1004 32.4255C30.748 33.3389 30.81 34.3743 31.2526 35.2484C31.5859 35.9064 32.2884 36.692 33.0444 36.9051C33.3268 36.9847 33.489 36.9159 33.7324 36.7796C33.9265 36.2357 33.7787 32.7396 33.7796 31.9037C34.3236 31.8322 34.8663 31.7767 35.413 31.7293C35.6437 33.3574 35.4856 35.168 35.4861 36.8151C36.7274 36.846 37.7883 37.0155 38.8659 37.6354C40.0961 38.3434 41.0163 39.5584 41.3375 40.9055C41.7056 42.45 41.2486 43.8588 40.4116 45.174C39.1295 46.7926 37.5227 47.3323 35.5119 47.7226L35.4856 49.3975C34.9334 49.4223 34.3747 49.4095 33.8216 49.4121C33.8132 48.8238 33.8279 48.2332 33.8314 47.6446C33.2537 47.5564 32.683 47.4631 32.1305 47.2724C30.323 46.6489 28.929 45.2211 28.123 43.5768C28.8962 43.1297 29.7173 42.7477 30.563 42.4465C30.6779 42.721 30.808 42.9922 30.9435 43.2578C31.5668 44.4784 32.4832 45.0628 33.786 45.4868C33.8507 43.4369 33.7953 41.3691 33.7955 39.3172C32.7976 39.229 31.7966 38.9059 30.9562 38.3784C29.6868 37.5818 28.8032 36.3039 28.513 34.8744C28.2094 33.3782 28.5387 31.7683 29.4391 30.5107C30.5171 29.0047 32.0413 28.3301 33.8602 28.0078L33.88 26.6543Z" fill="white"/>
<path d="M35.5061 39.2427C36.3269 39.2381 37.0971 39.4827 37.7232 40.0048C38.3324 40.5132 38.7034 41.2226 38.7566 41.9974C38.8215 42.9387 38.4503 43.6971 37.8316 44.4C37.1411 45.0067 36.358 45.2219 35.4746 45.4296L35.5061 39.2427Z" fill="black"/>
</g>
<defs>
<clipPath id="clip0_378_276">
<rect width="183" height="176" fill="white"/>
</clipPath>
</defs>
</svg>
