<svg width="39" height="38" viewBox="0 0 39 38" fill="none" xmlns="http://www.w3.org/2000/svg">
<path d="M24.6057 20.6833C23.6378 21.5477 22.3548 22.0197 21.0281 21.9994C19.7014 21.9791 18.435 21.4681 17.4967 20.5745C16.5585 19.681 16.022 18.4749 16.0007 17.2113C15.9793 15.9478 16.4749 14.7259 17.3825 13.8041L21.8975 9.50229C22.8091 8.63511 24.0311 8.12793 25.3187 8.0823C26.6063 8.03667 27.8644 8.45596 28.8412 9.25621M28.2192 3.4834C28.6905 3.01913 29.2542 2.64887 29.8773 2.39422C30.5005 2.13957 31.1706 2.00561 31.8487 2.00017C32.5267 1.99473 33.1991 2.11791 33.8267 2.36253C34.4542 2.60714 35.0243 2.9683 35.5038 3.42494C35.9833 3.88158 36.3625 4.42457 36.6193 5.02223C36.8762 5.6199 37.0055 6.26028 36.9998 6.90605C36.9941 7.55181 36.8535 8.19003 36.5861 8.78349C36.3187 9.37695 35.9299 9.91377 35.4424 10.3626L30.9274 14.6645C30.0158 15.5316 28.7938 16.0388 27.5062 16.0844C26.2186 16.1301 24.9605 15.7108 23.9837 14.9105" stroke="black" stroke-width="3" stroke-linecap="round" stroke-linejoin="round"/>
<path d="M37 20.8889C37 28.0119 37 31.5743 34.7211 33.7862C32.4422 35.9981 28.7769 36 21.4444 36H17.5556C10.2231 36 6.55583 36 4.27889 33.7862C2.00194 31.5724 2 28.0119 2 20.8889V17.1111C2 9.98811 2 6.42567 4.27889 4.21378C6.55778 2.00189 10.2231 2 17.5556 2" stroke="black" stroke-width="3" stroke-linecap="round" stroke-linejoin="round"/>
</svg>
