<svg width="184" height="175" viewBox="0 0 184 175" fill="none" xmlns="http://www.w3.org/2000/svg">
<g clip-path="url(#clip0_378_296)">
<path d="M0 0H184V175H0V0Z" fill="white"/>
<path d="M160.346 126.075C163.854 125.859 167.588 127.063 170.311 129.15C173.309 131.447 175.216 134.784 175.595 138.435C175.981 142.157 174.85 145.667 172.336 148.545C169.689 151.577 165.985 153.157 161.912 153.517C158.388 153.783 154.492 152.515 151.8 150.355C148.832 147.973 146.916 144.477 146.607 140.793C146.313 137.276 147.595 133.58 150.023 130.911C152.669 128.001 156.338 126.331 160.346 126.075Z" fill="black"/>
<path d="M159.969 134.596C160.782 134.527 161.515 134.538 162.287 134.835C163.285 135.219 164.095 135.947 164.515 136.894C164.922 137.811 164.971 138.848 164.558 139.772C164.09 140.819 163.202 141.414 162.119 141.805C161.215 142.021 160.283 141.995 159.43 141.615C158.518 141.208 157.824 140.493 157.481 139.591C157.096 138.578 157.121 137.411 157.62 136.436C158.119 135.461 158.922 134.936 159.969 134.596Z" fill="white"/>
<path d="M160.533 144.009C161.953 143.868 163.427 144.23 164.637 144.94C166.596 146.091 167.665 147.91 168.2 149.993C166.271 151.207 164.149 151.758 161.875 152.009C159.107 152.077 156.392 151.559 154.066 150.056C154.412 148.923 154.755 147.824 155.474 146.848C156.69 145.196 158.483 144.345 160.533 144.009Z" fill="white"/>
<path d="M159.445 127.607C160.096 127.546 160.768 127.542 161.422 127.564C164.94 127.682 168.31 129.113 170.697 131.582C173.072 134.038 174.215 137.251 174.048 140.569C173.876 144 172.222 146.724 169.604 149.008C169.429 148.556 169.257 148.099 169.061 147.655C168.007 145.26 166.004 143.795 163.533 142.83C164.643 142.154 165.47 141.454 165.985 140.267C166.553 138.96 166.516 137.528 165.941 136.232C165.278 134.741 164.119 133.842 162.569 133.247C161.687 132.989 160.688 132.957 159.785 133.132C158.402 133.4 157.24 134.175 156.483 135.303C155.673 136.511 155.432 138.012 155.757 139.406C156.134 141.025 157.151 142.064 158.581 142.946C157.949 143.179 157.34 143.441 156.758 143.774C154.677 144.969 153.275 146.807 152.694 149.039C150.31 147.058 148.746 144.534 148.277 141.535C147.769 138.288 148.806 134.894 150.873 132.287C152.936 129.684 156.068 128.041 159.445 127.607Z" fill="white"/>
<path d="M159.781 21.0538C163.441 20.7511 167.027 21.6952 169.928 23.8671C173.083 26.2291 175.065 29.6372 175.527 33.4298C175.969 37.0605 174.813 40.7604 172.417 43.6095C169.884 46.6207 166.265 48.2786 162.279 48.6956C158.497 48.8838 154.883 48.0084 151.899 45.724C148.834 43.3774 146.878 40.1303 146.474 36.3885C146.077 32.7057 147.253 29.0125 149.719 26.1522C152.254 23.2112 155.818 21.4294 159.781 21.0538Z" fill="black"/>
<path d="M160.987 29.0879C161.762 29.0952 162.482 29.2477 163.159 29.6187C164.148 30.1603 164.822 31.0956 165.074 32.1471C165.329 33.2134 165.104 34.315 164.462 35.2206C163.731 36.2514 162.657 36.7493 161.416 36.9964C160.413 37.008 159.561 36.7985 158.745 36.2246C157.82 35.5745 157.208 34.5792 157.061 33.4952C156.913 32.4136 157.247 31.3282 157.975 30.4872C158.765 29.575 159.781 29.187 160.987 29.0879Z" fill="white"/>
<path d="M160.582 38.7434C162.242 38.7193 163.776 38.9315 165.143 39.9005C167.054 41.2556 167.678 43.2749 168.009 45.4195C165.983 46.3994 164.176 46.9333 161.921 47.1669C159.148 47.2937 156.6 46.6881 154.164 45.4313C154.415 43.6897 154.841 42.0793 156.088 40.7242C157.289 39.4187 158.798 38.8645 160.582 38.7434Z" fill="white"/>
<path d="M159.85 22.5919C160.529 22.5305 161.22 22.5251 161.901 22.5666C165.316 22.7744 168.579 24.2279 170.829 26.695C173.169 29.2603 174.277 32.6961 174.002 36.0681C173.732 39.3818 172.057 42.269 169.409 44.4081C169.267 43.3198 168.863 42.1799 168.31 41.2178C167.299 39.4601 165.862 38.2906 163.846 37.7162C165.176 36.846 166.135 35.8331 166.531 34.3099C166.884 32.9523 166.691 31.4596 165.927 30.2584C165.05 28.8818 163.699 28.0829 162.084 27.7019C161.481 27.6009 160.886 27.5879 160.28 27.6816C158.768 27.9154 157.403 28.7189 156.522 29.9127C155.648 31.0968 155.324 32.5833 155.586 34.0045C155.886 35.6366 156.84 36.7144 158.235 37.6357C157.501 37.9047 156.834 38.1664 156.194 38.6099C154.142 40.0326 153.188 42.1668 152.798 44.4855L152.559 44.3028C149.96 42.2987 148.374 39.3034 148.043 36.1498C147.693 32.8188 148.853 29.5158 151.079 26.9416C153.312 24.36 156.378 22.925 159.85 22.5919Z" fill="white"/>
<path d="M90.1615 2.17097C91.2717 2.02615 92.5529 2.07436 93.6645 2.13339C100.341 2.48781 106.708 5.4455 111.137 10.1921C116.292 15.7175 117.906 21.6352 117.467 28.8491C120.311 30.177 123.179 31.4082 125.896 32.9736C137.966 39.9273 148.251 50.5582 153.821 62.9463C154.749 62.8299 155.734 62.8413 156.67 62.8719C163.574 63.0975 169.939 66.0281 174.634 70.8091C179.355 75.617 181.824 81.8388 181.565 88.4209C181.319 94.663 178.317 100.949 173.503 105.194C167.852 110.177 161.383 111.994 153.807 111.749L153.404 112.579C147.376 124.833 138.49 134.763 126.149 141.637C123.438 143.147 120.551 144.63 117.593 145.651C117.657 147.211 117.736 148.759 117.62 150.319C117.251 155.27 115.154 160.092 111.865 163.928C107.211 169.357 100.988 171.994 93.7714 172.676C92.5191 172.712 91.2673 172.713 90.0191 172.597C82.802 171.931 76.2901 168.574 71.7111 163.232C67.431 158.238 65.8226 151.918 66.4803 145.579C64.329 144.863 62.2448 143.811 60.2388 142.789C49.9039 137.524 41.3113 129.836 35.0369 120.43C33.7802 118.547 32.6719 116.582 31.6398 114.579C31.1506 113.63 30.7298 112.648 30.1978 111.719C29.2738 111.798 28.3249 111.807 27.3973 111.778C20.6206 111.566 14.0811 108.76 9.45638 104.03C4.79938 99.2665 2.09059 92.974 2.3602 86.4263C2.63239 79.8153 5.64208 73.7103 10.7701 69.2458C16.479 64.2754 23.0022 62.6922 30.5526 62.9871C30.5959 62.8494 30.6405 62.7171 30.6944 62.5826C31.6971 60.0757 33.6965 56.8577 35.2288 54.5589C42.8417 43.139 53.2418 34.747 66.2337 29.2788C66.1315 27.7195 66.0585 26.1565 66.1893 24.5965C66.5987 19.7175 68.7149 14.8582 72.0173 11.1058C76.5774 5.9246 83.096 2.75084 90.1615 2.17097Z" fill="black"/>
<path d="M157.45 86.409C157.602 86.3817 157.519 86.3766 157.694 86.4644C157.847 86.8968 157.848 87.3695 157.884 87.822L153.899 87.8078C153.743 87.8015 153.824 87.8242 153.672 87.7038C153.66 87.2844 153.802 86.8696 153.907 86.4646C155.131 86.6507 156.237 86.6534 157.45 86.409Z" fill="white"/>
<path d="M89.8066 91.3004C91.3031 91.3448 92.8013 91.3313 94.2985 91.3293C94.0282 91.7048 93.7335 92.0664 93.4487 92.4319C93.1957 92.7601 92.9201 93.072 92.6497 93.3869L91.2858 93.3835C90.7299 92.7551 90.258 92.0013 89.8066 91.3004Z" fill="white"/>
<path d="M91.6052 94.7948L92.4829 94.8069C93.0057 95.424 93.4682 96.0712 93.9336 96.728C93.3783 97.4043 92.8263 98.0788 92.2269 98.7207L92.1557 98.7366C91.4467 98.2847 90.6933 97.2662 90.1104 96.6424C90.6431 96.0519 91.0483 95.3767 91.6052 94.7948Z" fill="white"/>
<path d="M26.2051 87.714C27.8498 88.09 29.1848 88.1101 30.8432 87.8073C30.7929 88.5644 30.6804 89.1083 30.3007 89.7872C29.9383 90.183 29.4441 90.506 28.8946 90.6105C28.4158 90.7018 27.9118 90.5504 27.5202 90.2864C26.6033 89.668 26.3995 88.692 26.2051 87.714Z" fill="white"/>
<path d="M153.389 89.3303L157.726 89.304C157.315 90.4862 156.826 91.6511 156.369 92.8185C156.174 93.3271 155.947 93.8244 155.728 94.3238C154.99 92.6418 154.184 90.9882 153.389 89.3303Z" fill="white"/>
<path d="M155.813 70.7028L155.937 70.7058C157.704 70.7592 159.518 71.3 160.742 72.5688C161.8 73.6649 162.327 75.2586 162.201 76.7367C162.184 76.9419 162.17 77.0742 162.002 77.2121C161.305 76.6447 160.643 74.51 160.09 74.3178C159.395 74.0763 157.692 75.3045 156.94 75.5751C155.368 76.0013 153.875 76.0256 152.262 75.8333C151.776 75.7755 151.137 75.6169 150.66 75.665C150.126 75.7186 149.803 76.543 149.509 76.9139L149.376 76.9041C149.318 76.7796 149.285 76.6702 149.271 76.5338C149.138 75.2025 149.586 73.8671 150.5 72.8521C151.866 71.3339 153.793 70.8373 155.813 70.7028Z" fill="white"/>
<path d="M27.374 71.3725C28.4141 71.3161 29.3634 71.3405 30.3734 71.6065C32.2705 72.1062 34.0225 73.2117 34.9968 74.8667C35.9026 76.4053 36.1951 78.2158 35.6882 79.9159C32.572 79.3588 34.159 76.4137 32.9178 75.4049C32.3041 74.9062 30.5292 76.1785 29.8456 76.4167C29.4428 76.5572 29.0207 76.5938 28.597 76.6331C27.2457 76.375 26.9694 75.0152 25.8176 74.5112C25.389 74.3236 24.8956 74.3369 24.4645 74.5143C23.5068 74.9084 23.3861 78.413 22.8804 79.5643C22.75 79.8617 22.6163 80.1129 22.2979 80.2341C22.1094 80.1874 21.964 80.1386 21.8023 80.0323C21.3443 79.7313 21.134 79.2586 21.0429 78.75C20.7892 77.3328 21.3631 75.545 22.207 74.3781C23.4723 72.6284 25.2092 71.7396 27.374 71.3725Z" fill="white"/>
<path d="M159.424 76.1362C160.234 77.0188 160.523 78.0684 161.523 78.8634C161.284 80.2445 160.73 81.6012 159.895 82.7575C159.063 83.9102 157.804 84.9428 156.313 85.1713C155.002 85.3723 153.908 84.8531 152.877 84.157C151.138 82.6393 150.485 80.7667 150.064 78.6008C150.406 78.1539 150.739 77.7005 151.075 77.2498C154.008 77.7926 156.811 77.5386 159.424 76.1362Z" fill="white"/>
<path d="M25.2781 75.9139C26.138 76.3839 25.9862 77.4932 27.8745 77.9483C29.2953 78.2908 30.7522 77.849 31.97 77.1606C32.1428 78.2817 32.4659 79.8684 33.0709 80.8377C33.5748 81.6448 34.2042 81.7993 35.1032 81.9976C34.3284 83.8607 33.118 85.0068 31.3086 85.9783C29.7167 86.6823 28.157 86.821 26.4753 86.2895C24.0609 85.5266 22.5892 83.7358 21.4814 81.6407C22.1457 81.7679 23.0816 81.9766 23.676 81.5691C24.5165 80.9929 25.1039 76.9853 25.2781 75.9139Z" fill="white"/>
<path d="M86.7695 91.3588L87.8854 91.373C88.6569 92.2495 89.3182 93.1876 89.9999 94.1263C89.6307 94.8237 88.621 95.9792 88.5834 96.7373C88.5403 97.609 90.6232 99.3654 91.2737 100.009C91.3291 103.505 91.2703 107.005 91.2056 110.5C88.8661 110.472 86.4746 109.97 84.2514 109.312L84.2415 101.92C84.2368 101.529 84.3121 100.869 84.0756 100.539C83.966 100.386 83.8429 100.328 83.6578 100.295C83.3705 100.243 83.1215 100.346 82.8927 100.503C82.7625 100.698 82.7227 100.867 82.7017 101.093C82.6115 102.066 82.705 103.1 82.7156 104.077C82.7319 105.597 82.701 107.117 82.6757 108.636C81.1205 108.024 79.6611 107.189 78.2377 106.342C78.1882 104.768 77.8856 97.163 78.4557 96.2048C79.4954 94.458 84.7511 91.8446 86.7695 91.3588Z" fill="white"/>
<path d="M95.9576 91.3363C96.6063 91.3329 97.254 91.338 97.8827 91.5116C99.8563 92.0561 104.077 94.3053 105.526 95.699C105.806 95.9677 106.025 96.2563 106.118 96.6283C106.401 97.7547 106.237 99.1411 106.231 100.302L106.202 106.255C104.673 107.245 103.127 108.126 101.365 108.689C101.366 107.466 101.522 101.44 101.271 100.737C101.195 100.522 101.062 100.369 100.833 100.291C100.482 100.171 100.22 100.296 99.9227 100.458C99.6413 101.506 99.8067 102.874 99.8135 103.957L99.8171 109.363C97.5174 110.007 95.2086 110.381 92.8172 110.519L92.8125 100.173C93.8247 99.3142 95.0327 97.9248 95.6765 96.7892C95.2061 95.9208 94.5127 95.0833 93.946 94.265C94.5149 93.2591 95.2933 92.2916 95.9576 91.3363Z" fill="white"/>
<path d="M87.36 152.981C87.5157 152.97 87.7783 152.907 87.9037 153C88.987 153.804 90.5625 159.645 91.7885 160.322C91.9451 160.335 92.05 160.37 92.198 160.305C92.4809 160.18 92.6518 159.948 92.8061 159.699C93.2976 158.903 93.6309 157.942 94.0323 157.096C94.682 155.727 95.3909 154.385 96.0277 153.01C98.6611 153.159 101.517 154.083 103.399 155.893C105.714 158.119 105.818 160.344 105.794 163.298L105.771 167.264C104.374 168.201 102.86 168.896 101.288 169.52C101.311 168.535 101.574 163.011 101.047 162.503C100.904 162.365 100.761 162.332 100.566 162.324C100.392 162.317 100.195 162.375 100.078 162.499C99.4786 163.133 99.762 165.193 99.7641 166.068C99.7692 167.408 99.7246 168.747 99.6898 170.086C94.5556 171.628 89.4443 171.432 84.3371 169.893L84.2825 165.216C84.2789 164.497 84.3631 163.67 84.2498 162.961C84.2018 162.662 83.9901 162.45 83.7251 162.293C83.519 162.171 83.4122 162.194 83.1898 162.252C82.944 162.489 82.8414 162.722 82.7697 163.048C82.4829 164.354 82.6983 167.803 82.6831 169.311C81.1564 168.68 79.7152 167.843 78.3147 166.993C78.5531 163.496 77.5179 159.764 79.855 156.732C81.6852 154.358 84.4012 153.41 87.36 152.981Z" fill="white"/>
<path d="M96.6252 29.7499C98.8165 30.436 102.055 31.8536 103.786 33.3013C106.099 35.2361 105.95 37.4417 105.941 40.1352C105.935 41.8548 105.895 43.5785 106.018 45.2951C104.507 46.179 102.958 47.0315 101.325 47.6963C101.32 46.802 101.481 40.9863 101.149 40.5602C100.981 40.3451 100.897 40.3321 100.639 40.2625C100.412 40.3034 100.256 40.3423 100.083 40.496C99.8977 40.6609 99.7735 40.896 99.7446 41.1356C99.6601 41.8341 99.7372 42.6209 99.7362 43.3283L99.7254 48.3537C94.3265 49.7677 89.6505 49.9402 84.2609 48.2491L84.2595 44.8395C84.2564 43.4901 84.4412 41.9363 84.1522 40.6144C84.0065 40.458 83.7803 40.2605 83.5526 40.2166C83.3454 40.1766 83.1745 40.1983 83.0198 40.3463C82.7808 40.5749 82.7036 40.9866 82.6653 41.2918C82.5625 42.111 82.6567 42.9935 82.6678 43.8181C82.6849 45.0907 82.668 46.3651 82.6612 47.638C81.1157 46.9855 79.7035 46.2059 78.2568 45.3789L78.2356 40.1959C78.2254 39.0616 78.1153 37.8317 78.3158 36.7107C78.4286 36.0791 78.6647 35.4642 78.9961 34.9069C80.4392 32.4807 84.6363 30.6092 87.3542 29.895C88.0836 31.0468 90.9728 37.1122 91.6258 37.5283C91.7999 37.6394 91.9938 37.6797 92.1936 37.5982C92.9183 37.3022 96.0896 30.813 96.6252 29.7499Z" fill="white"/>
<path d="M159.416 89.3496C162.098 89.7769 164.765 90.9942 166.621 92.9043C169.191 95.5491 169.485 98.2668 169.462 101.71C169.452 103.278 169.405 104.842 169.344 106.409C167.963 107.175 166.6 107.925 165.129 108.53C165.142 107.11 165.399 102.41 164.974 101.345C164.79 101.16 164.642 101.073 164.374 101.057C164.138 101.044 163.947 101.073 163.765 101.223C163.637 101.429 163.572 101.599 163.544 101.839C163.457 102.602 163.536 103.432 163.54 104.204L163.558 109.137C158.395 110.594 152.692 110.808 147.613 108.889C147.614 108.277 147.633 107.663 147.645 107.051C147.718 105.696 147.846 103.453 147.678 102.158C147.611 101.639 147.47 101.247 147.028 100.923C146.841 100.902 146.752 100.865 146.598 100.994C146.349 101.204 146.233 101.522 146.173 101.823C146.045 102.468 146.139 103.207 146.141 103.864L146.146 108.278C144.509 107.559 142.972 106.792 141.517 105.767C141.502 101.802 140.977 97.6189 143.431 94.1554C145.385 91.3968 148.372 90.1063 151.708 89.4756C152.291 90.6331 154.747 96.2566 155.313 96.6545C155.495 96.7827 155.692 96.8466 155.918 96.7864C156.202 96.7111 156.441 96.373 156.579 96.1428C157.045 95.368 157.308 94.4038 157.647 93.5701C158.221 92.1571 158.857 90.7684 159.416 89.3496Z" fill="white"/>
<path d="M24.767 90.1652C24.8838 90.1501 25.0662 90.1298 25.1695 90.2017C25.7211 90.5854 26.1215 91.149 26.7274 91.5183C27.5522 92.0215 28.6028 92.2388 29.5616 91.9991C30.5689 91.7473 31.3995 90.9768 31.9055 90.137C34.337 90.5381 36.5369 91.1547 38.4773 92.6634C39.4577 93.4257 40.3209 94.3679 40.9842 95.3938C43.114 98.6891 42.0804 101.873 42.4587 105.452L42.4709 105.558C41.2499 106.622 39.7618 107.33 38.2906 108.025C38.3072 106.428 38.4303 104.757 38.3054 103.167C38.2718 102.741 38.1981 102.304 37.8393 102.017C37.5516 101.956 37.2607 101.965 37.0176 102.146C36.8363 102.281 36.7732 102.462 36.7367 102.667C36.6249 103.296 36.727 104.004 36.7288 104.644C36.7328 106.025 36.7247 107.406 36.6983 108.786C35.4304 109.253 34.1758 109.618 32.8413 109.87C28.5803 110.666 24.6083 110.198 20.4543 109.18C20.466 108.024 20.6355 102.975 20.3541 102.213C20.2773 102.006 20.1445 101.856 19.9289 101.765C19.7054 101.672 19.5235 101.721 19.3023 101.785C18.7678 102.469 18.9669 107.41 18.9521 108.499C17.3578 107.898 15.8109 107.076 14.4335 106.107C14.4189 102.214 13.8496 98.9517 16.1642 95.4878C18.2647 92.3443 21.0241 90.96 24.767 90.1652Z" fill="white"/>
<path d="M26.1693 64.4636C26.8981 64.3611 27.7322 64.3744 28.4698 64.384C34.7637 64.4657 41.016 66.9849 45.3919 71.2977C49.8722 75.7134 52.2065 81.7348 52.0795 87.8418C51.9765 92.7936 50.0593 97.872 46.7748 101.726C45.9372 102.709 44.9872 103.57 44.0306 104.445C43.9759 100.475 44.4846 97.4612 41.8833 93.9925C39.3418 90.6034 36.3752 89.3693 32.1879 88.7227C32.2423 88.1746 32.3166 87.6511 32.4429 87.1138C32.7304 86.9371 33.0085 86.7481 33.2822 86.5526C35.5265 84.949 36.9795 82.5341 37.3503 79.8951C37.6914 77.469 37.198 75.0863 35.6036 73.1283C33.9835 71.1389 31.7121 70.1373 29.1311 69.8331C28.1823 69.7685 27.1872 69.8616 26.2613 70.0629C23.9913 70.5563 21.9851 71.9698 20.7729 73.8564C19.4173 75.9661 19.1142 78.5896 19.7433 80.9699C20.4735 83.7338 22.2555 85.7779 24.7785 87.2314L24.8441 88.6182C21.7234 89.2622 18.9602 90.2266 16.6888 92.4496C15.6062 93.5093 14.7304 94.7251 14.0823 96.0672C12.568 99.2027 12.7511 101.698 12.7992 105.027C7.71585 100.755 4.52005 95.1801 3.93934 88.6984C3.41255 82.8186 5.77149 76.8608 9.73667 72.4061C13.8723 67.7599 19.8164 64.9628 26.1693 64.4636Z" fill="white"/>
<path d="M154.203 64.3778C155.401 64.219 156.793 64.3176 157.994 64.4263C164.496 65.0152 170.535 68.2563 174.649 73.0498C178.648 77.709 180.523 83.959 179.845 89.9266C179.145 96.096 176.079 101.292 171.044 105.166C170.902 101.002 171.612 97.0513 169.032 93.3613C166.791 90.1549 163.384 88.5696 159.517 87.8168C159.38 87.1074 159.216 86.4052 159.05 85.7016C161.732 83.8217 162.431 81.0226 163.392 78.1771C163.958 76.4999 163.685 74.3974 162.826 72.8509C161.81 71.0213 160.119 70.0475 158.092 69.4661C156.958 69.2224 155.797 69.1362 154.641 69.2767C152.492 69.5377 150.319 70.5788 148.993 72.2345C147.898 73.6022 147.504 75.332 147.764 77.0244C147.909 77.9773 148.39 78.7322 148.703 79.6251C149.717 82.5237 149.748 83.8004 152.518 85.7578C152.287 86.452 152.155 87.1807 151.999 87.8929C148.803 88.3123 145.861 89.5084 143.567 91.7012C139.644 95.4498 139.884 99.5678 139.919 104.462C135.27 100.392 132.558 95.0091 131.996 89.0428C131.439 83.1388 133.636 76.9591 137.626 72.4407C140.541 69.1395 144.822 66.4179 149.175 65.21C150.829 64.7512 152.493 64.5235 154.203 64.3778Z" fill="white"/>
<path d="M91.2519 64.2951C92.187 64.238 93.144 64.2805 94.0762 64.3593C100.538 64.9048 106.379 67.9762 110.494 72.7139C114.595 77.4361 116.513 83.791 115.864 89.8678C115.258 95.5389 112.479 101.32 107.791 104.981C107.739 102.89 107.792 100.789 107.796 98.6969C107.8 97.0454 107.856 95.7376 106.515 94.479C104.994 93.051 100.001 90.386 97.8869 89.9845C96.288 89.6808 94.2588 89.8411 92.6069 89.8487C90.9173 89.9015 89.2245 89.8311 87.5343 89.8331C87.0884 89.8336 86.6397 89.8575 86.2066 89.9666C83.8278 90.5661 79.4432 92.9898 77.7426 94.6446C77.3195 95.0563 76.95 95.5637 76.7849 96.123C76.4192 97.3622 76.6523 103.538 76.6598 105.202L76.221 104.833C71.2193 100.614 68.1373 95.0011 67.7583 88.6165C67.4052 82.6655 69.6186 76.7431 73.8129 72.3141C78.3379 67.5356 84.4883 64.6271 91.2519 64.2951Z" fill="white"/>
<path d="M90.4613 68.2211C92.7487 67.9021 95.7404 68.2404 97.7189 69.4432C99.5321 70.5455 100.255 72.0065 100.698 73.9457C101.148 74.3511 101.577 74.7402 101.923 75.2343C102.562 76.1484 102.801 77.263 102.545 78.3373C102.201 79.7769 101.143 80.6285 99.8832 81.3511C99.8074 82.6771 99.6044 83.859 98.9205 85.0372C97.8567 86.8697 96.0302 88.1041 93.9417 88.6804C93.4468 88.7853 92.9697 88.8545 92.4623 88.8727C90.3132 88.9494 88.3034 88.2438 86.7319 86.8432C85.0159 85.3139 84.4729 83.4237 84.4146 81.2521C83.6849 80.9281 83.0435 80.4352 82.5689 79.8147C81.9006 78.9404 81.6248 77.8301 81.8345 76.7655C82.0548 75.6482 82.7948 74.6835 83.7586 74.0351C83.9031 72.8352 84.2111 71.7416 85.001 70.7721C86.3019 69.1754 88.4206 68.4563 90.4613 68.2211Z" fill="black"/>
<path d="M90.6379 69.6727C92.5689 69.4374 94.8439 69.6629 96.573 70.5443C98.7266 71.6419 98.7444 72.9326 99.3612 74.8724C99.6049 75.0551 99.8518 75.2387 100.08 75.4385C100.654 75.94 101.075 76.6609 101.095 77.4123C101.123 78.4034 100.527 79.0941 99.8325 79.7526C99.8004 78.7233 99.9768 76.9196 99.1744 76.1171C98.9343 75.877 98.6365 75.7521 98.2971 75.6965C97.3536 75.542 94.9082 75.7061 93.8211 75.7045L88.8743 75.6709C88.0177 75.6639 87.095 75.5829 86.2485 75.69C85.8015 75.7468 85.1862 75.9159 84.8843 76.2606C84.341 76.881 84.5331 78.8226 84.519 79.6373C84.3122 79.4908 84.1237 79.3396 83.9545 79.1533C83.4835 78.6349 83.2185 78.0117 83.2982 77.3212C83.4336 76.1499 84.3388 75.4484 85.2385 74.7643C85.2664 73.6885 85.4505 72.7311 86.1472 71.8434C87.2341 70.4586 88.9038 69.8877 90.6379 69.6727Z" fill="white"/>
<path d="M86.091 77.1731C90.1441 77.1223 94.2046 77.1659 98.2584 77.1642C98.2631 77.2587 98.2656 77.3529 98.2667 77.4474L98.2846 80.5056C98.2785 82.7129 98.0408 84.1623 96.3722 85.786C95.1627 86.7901 93.5696 87.4188 91.9489 87.3802C90.2941 87.3409 88.6498 86.5978 87.5291 85.4482C85.3527 83.2156 85.9697 79.9659 86.091 77.1731Z" fill="white"/>
<path d="M90.8918 3.6253C91.8273 3.56887 92.7789 3.59516 93.7127 3.66187C100.082 4.11703 105.996 6.84496 110.174 11.4621C114.387 16.118 116.442 22.0052 115.941 28.1357C115.436 34.3195 112.516 40.0241 107.545 44.0715C107.508 42.7212 107.509 41.366 107.511 40.0152C107.514 37.6669 107.649 35.5612 106.136 33.5583C104.533 31.4376 99.1754 28.6351 96.4397 28.1918C96.0375 28.4466 95.6436 28.7296 95.2269 28.9613C94.5375 29.3446 93.601 29.6543 93.022 30.1809C92.8128 30.3709 92.7548 30.5206 92.7446 30.7899C92.8152 30.894 92.8775 30.9805 92.9931 31.0442C93.4436 31.2931 93.8414 31.1363 94.2998 30.9984L92.3606 34.6394L91.9998 35.3502C91.7079 34.7129 89.8216 31.507 89.9402 31.1155C90.2525 31.1721 90.52 31.2264 90.8372 31.1823C91.0237 31.0541 91.092 30.9508 91.143 30.7335C91.1908 30.5302 91.1486 30.287 91.0023 30.1304C90.957 30.0819 88.2312 28.5751 88.0051 28.4714C87.8039 28.3791 87.5762 28.2996 87.3502 28.2969C85.625 28.2762 80.4394 31.2356 79.1469 32.3709C76.7772 34.4523 76.7028 36.702 76.7015 39.5712C76.7008 41.1115 76.7121 42.6499 76.6521 44.1894L75.5341 43.2737C70.8543 39.3914 68.1216 33.7497 67.7218 27.8778C67.333 22.1649 69.5974 15.9908 73.5897 11.7123C78.0659 6.91529 84.1568 4.00451 90.8918 3.6253Z" fill="white"/>
<path d="M91.6466 9.51913C93.4404 9.44551 95.3406 9.95144 96.8279 10.908C98.3534 11.8892 99.555 13.381 99.8989 15.1251C100.096 16.1237 99.9189 17.0929 99.8321 18.0905C99.5683 21.1208 99.6517 22.3841 97.7048 25.0775C96.4029 26.8786 94.881 27.9735 92.6101 28.3685C91.0055 28.4751 89.423 28.0571 88.1592 27.1001C86.3162 25.7043 84.8305 23.1043 84.5351 20.8877C84.4201 20.0245 84.4826 19.1471 84.4397 18.28C84.4144 17.7683 84.3225 17.2577 84.2614 16.7492C84.0607 15.0831 84.4488 13.337 85.5956 12.0272C87.0777 10.3344 89.4235 9.69201 91.6466 9.51913Z" fill="black"/>
<path d="M91.1261 11.0481C91.4562 11.0209 91.803 11.0189 92.1343 11.0271C93.8229 11.0686 95.7072 11.7097 96.8826 12.887C97.8939 13.8997 98.5028 15.2634 98.4502 16.6699C98.4281 17.2628 98.436 18.6571 97.9878 19.0529C97.0118 18.6506 97.3223 15.342 96.3228 14.6955C95.8264 14.3742 95.0828 14.9872 94.6165 15.1693C94.3116 15.2885 93.9776 15.3606 93.6586 15.4387C91.148 16.0145 90.694 15.3594 88.431 14.8254C86.7013 14.4173 87.2073 18.065 86.2548 18.6435L86.1153 18.5529C86.0285 18.3611 85.9799 18.187 85.945 17.98C85.6685 16.3454 85.5998 14.5089 86.6894 13.1153C87.7199 11.7973 89.4938 11.2872 91.1261 11.0481Z" fill="white"/>
<path d="M95.4181 16.5209C96.0249 17.2669 95.7956 19.2097 96.6227 20.0873C97.0518 20.5427 97.5271 20.6285 98.1414 20.6747C97.8553 21.9491 97.2556 23.1423 96.4773 24.2106C95.5832 25.4379 94.2776 26.6689 92.6608 26.9049C91.3584 27.0951 90.293 26.658 89.2548 25.9624C87.5003 24.6583 86.3985 22.4286 85.9541 20.3959C86.3185 20.5144 86.7151 20.6487 87.0806 20.4535C88.0135 19.9554 88.3369 17.5554 88.5632 16.5946C91.0869 17.249 92.9186 17.2714 95.4181 16.5209Z" fill="white"/>
<path d="M89.9908 125.56C90.8223 125.473 91.6984 125.486 92.5349 125.512C98.8715 125.703 105.095 128.245 109.428 132.682C113.918 137.279 116.352 143.252 116.087 149.536C115.895 154.073 114.031 158.965 111.043 162.55C109.947 163.866 108.671 164.994 107.378 166.128C107.361 163.79 107.668 161.106 107.012 158.845C106.301 156.398 104.493 154.333 102.165 153.111C99.9676 151.958 97.4179 151.664 94.9601 151.431C94.3499 151.373 93.6577 151.208 93.0615 151.372C92.8601 151.513 92.7458 151.648 92.6881 151.883C92.6286 152.124 92.6721 152.287 92.8021 152.499C93.3039 152.867 93.8566 152.795 94.4586 152.788L92.6189 156.664L92.042 157.899C91.267 156.156 90.3978 154.448 89.5759 152.724C90.1181 152.803 90.9955 153.008 91.4998 152.756C91.7142 152.648 91.8298 152.526 91.8905 152.301C91.9453 152.097 91.911 151.822 91.7807 151.652C91.5502 151.352 91.1054 151.282 90.7416 151.272C89.9211 151.25 89.0547 151.38 88.2392 151.461C85.0352 151.778 82.0307 152.491 79.6644 154.707C76.2289 157.923 76.7495 161.751 76.7234 165.95C71.7287 161.767 68.6792 157.178 68.0398 150.735C67.421 144.498 69.3289 138.404 73.5507 133.578C77.6418 128.903 83.6635 126.116 89.9908 125.56Z" fill="white"/>
<path d="M91.0445 132.475C92.9971 132.272 95.3329 132.518 97.0045 133.572C98.133 134.283 98.9089 135.336 99.1692 136.608C99.8425 139.897 99.7951 144.932 97.7323 147.754C96.554 149.366 94.9473 150.295 92.9321 150.64C91.1178 150.718 89.5051 150.405 88.0194 149.364C85.7642 147.784 85.0197 145.33 84.633 142.809C84.2377 140.231 83.9382 137.292 85.6948 135.085C86.9841 133.465 88.9915 132.743 91.0445 132.475Z" fill="black"/>
<path d="M92.1246 133.852C92.8327 133.866 93.5236 133.891 94.219 134.029C95.3807 134.259 96.5706 134.744 97.2209 135.739C97.8298 136.671 98.2316 140.273 97.9721 141.382L97.8582 141.427C97.2079 140.689 96.9235 138.844 96.5853 137.879C96.4757 137.567 96.397 137.334 96.066 137.174C95.4429 137.13 94.7342 137.916 94.2133 138.223C93.3342 138.742 92.5989 138.596 91.6622 138.367C91.6308 138.355 91.5995 138.344 91.5683 138.332L91.413 138.272C90.3935 137.882 89.43 137.123 88.4036 136.826C88.1838 136.762 88.0246 136.795 87.8299 136.907C86.7958 137.505 86.3201 140.771 86.0601 141.909C85.9052 141.284 85.8249 140.644 85.7978 140.003C85.7306 138.415 86.0914 136.74 87.2782 135.552C88.5657 134.264 90.332 133.92 92.1246 133.852Z" fill="white"/>
<path d="M88.4317 138.454C89.7878 139.12 91.2738 139.968 92.8395 140.043C93.8531 140.091 94.6985 139.776 95.4496 139.143C95.7829 140.26 95.8907 141.73 96.5928 142.691C96.9252 143.146 97.2599 143.23 97.8155 143.314C97.5631 145.179 96.8952 146.815 95.3921 148.084C94.7574 148.541 94.0951 148.893 93.318 149.083C91.9624 149.414 90.5271 149.14 89.3503 148.443C87.4116 147.294 86.6629 145.349 86.1641 143.334C86.4602 143.297 86.8409 143.328 87.1001 143.179C87.6168 142.881 88.1701 139.304 88.4317 138.454Z" fill="white"/>
<path d="M66.3743 30.8481C66.4541 30.9603 66.4349 30.9119 66.4679 31.0413C67.6066 35.5024 69.537 39.5978 72.8551 42.9927C77.5446 47.7908 84.2922 50.7641 91.1759 51.0309L91.2148 62.7303C85.074 63.0656 79.3127 65.3257 74.7321 69.2391C69.4515 73.751 66.4823 80.0476 66.1215 86.7571C63.1221 86.6644 60.0982 86.7449 57.0961 86.7584C55.958 86.7577 54.8186 86.7823 53.6805 86.7969C53.5608 82.1797 52.1749 77.8121 49.5591 73.924C46.5111 69.3934 41.9569 65.9879 36.6082 64.2446C35.1741 63.7772 33.7109 63.4723 32.2324 63.1664C37.5118 51.2693 47.2651 41.2986 58.789 34.6129C61.2363 33.193 63.842 32.1106 66.3743 30.8481Z" fill="white"/>
<path d="M117.269 30.4391C121.87 32.3964 126.271 34.7661 130.336 37.604C139.432 43.9554 147.645 53.1392 152.121 63.0277C147.318 63.6852 142.629 66.0265 138.986 69.0145C133.551 73.4711 130.823 79.8892 130.317 86.5826C129.433 86.6038 128.548 86.5953 127.663 86.5936L117.605 86.5891C117.049 80.3645 115.074 75.1501 110.583 70.4927C105.938 65.6765 99.6309 63.0479 92.8057 62.7676L92.8297 51.0257C97.2551 50.8763 101.926 49.5529 105.657 47.2934C112.449 43.1804 115.57 37.7547 117.269 30.4391Z" fill="white"/>
<path d="M53.6844 88.2831C57.8276 88.2243 61.9777 88.2964 66.1223 88.2763C66.5999 93.9903 68.4042 98.7242 72.2959 103.177C75.6418 107.005 80.6265 109.99 85.7083 111.226C87.5195 111.666 89.3405 111.851 91.1956 112.016C91.2815 116.013 91.2581 120.013 91.277 124.011C87.2178 124.153 83.4313 125.086 79.8469 126.914C73.5192 130.14 69.3107 135.391 67.2578 141.875L66.6833 144.02C64.5308 143.245 62.433 142.169 60.4086 141.134C51.225 136.436 43.0884 129.376 37.3527 121.091C35.2384 118.037 33.4898 114.868 31.8926 111.549C36.478 111.063 41.8284 108.361 45.2182 105.466C50.2805 101.142 53.3228 94.7139 53.6844 88.2831Z" fill="white"/>
<path d="M117.611 88.145C121.845 88.273 126.114 88.1659 130.351 88.163C130.611 93.032 132.188 97.5646 135.119 101.576C139.202 107.161 145.233 110.366 152.209 111.553C146.335 123.983 136.637 134.323 124.12 141.003C121.932 142.153 119.67 143.123 117.391 144.093C115.967 139.172 114.488 135.779 110.778 131.945C106.064 127.074 99.7192 124.32 92.7842 124.04C92.8634 120.032 92.8129 116.015 92.8183 112.007C98.6382 111.661 104.005 109.926 108.539 106.369C114.571 101.636 116.913 95.324 117.611 88.145Z" fill="white"/>
</g>
<defs>
<clipPath id="clip0_378_296">
<rect width="184" height="175" fill="white"/>
</clipPath>
</defs>
</svg>
