<svg width="137" height="142" viewBox="0 0 137 142" fill="none" xmlns="http://www.w3.org/2000/svg">
<g clip-path="url(#clip0_378_341)">
<path d="M0 0H137V142H0V0Z" fill="white"/>
<path d="M68.5857 4.05231C69.8047 4.03902 71.0026 4.10427 72.2062 4.31556C77.946 5.32308 83.0935 8.64363 86.4474 13.5856C89.1966 17.6367 90.4917 22.7419 90.2178 27.6692C90.1302 29.2451 89.8568 30.7891 89.5985 32.3416C90.3673 33.2515 90.9234 34.4047 91.1102 35.6017C91.3515 37.149 90.942 38.8201 90.0562 40.0865C89.0193 41.5687 87.5646 42.2506 85.8608 42.5292C85.6535 46.702 83.5605 50.288 80.8779 53.2631C81.8472 53.4263 82.8137 53.768 83.7594 54.0427L88.8082 55.5051L95.4189 57.3278C96.5028 57.628 97.6023 57.8993 98.6699 58.2572C105.656 60.5992 111.582 65.9894 114.909 72.7472C116.618 76.2184 117.422 80.1514 118.473 83.8718L123.032 99.8857L126.328 111.636C126.819 113.424 127.497 115.264 127.769 117.102C128.104 119.36 127.922 121.767 127.233 123.938C125.952 127.977 123.169 131.333 119.497 133.236C118.412 133.799 117.211 134.115 116.147 134.688C116.128 134.698 116.11 134.708 116.092 134.718C117.784 134.867 119.522 134.844 121.22 134.848L128.025 134.86C129.217 134.862 130.452 134.791 131.639 134.88C131.875 134.898 132.122 134.913 132.312 135.078C132.495 135.238 132.626 135.512 132.633 135.76C132.64 135.985 132.562 136.212 132.413 136.376C132.199 136.613 131.922 136.665 131.623 136.689C130.963 136.741 130.275 136.698 129.612 136.695L125.835 136.686L111.761 136.707L68.7342 136.718L27.3422 136.729L12.1026 136.695C10.8835 136.689 9.66303 136.664 8.44397 136.679C7.58533 136.689 6.7062 136.75 5.84934 136.711C5.50684 136.696 5.11939 136.643 4.84179 136.415C4.69244 136.292 4.5958 136.12 4.57748 135.922C4.55265 135.654 4.63805 135.379 4.80487 135.173C4.93867 135.009 5.10822 134.901 5.31514 134.87C6.24808 134.732 8.41815 134.855 9.48227 134.857L16.1676 134.869C17.8124 134.872 19.4635 134.9 21.1059 134.8C20.0861 134.396 19.0645 134.07 18.0705 133.59C14.3923 131.816 11.3926 128.321 10.0281 124.376C9.25246 122.134 8.90887 119.62 9.21272 117.251C9.51649 114.882 10.4944 111.95 11.1656 109.619L13.8431 100.155L18.0587 85.4822L19.8137 79.5121C20.4836 77.2974 21.1574 75.1013 22.1253 73.0019C25.0664 66.6226 30.1388 61.496 36.5345 58.9384C38.467 58.1655 40.4888 57.7448 42.4868 57.2005L50.8894 54.8435C52.8941 54.2802 54.9665 53.7633 56.9233 53.044C54.3939 49.9789 52.4822 46.6426 52.0721 42.5356C51.8954 42.5281 51.7181 42.5197 51.5419 42.5019C50.202 42.3658 48.9087 41.5992 48.0673 40.5165C47.1083 39.2823 46.7104 37.5814 46.8932 36.0205C47.0848 34.3844 47.8552 33.0053 49.1067 32.0018C48.7233 30.2042 48.455 28.3709 48.3891 26.5295C48.1808 20.7141 49.9786 15.0138 53.8293 10.7237C57.8192 6.27865 62.7983 4.26958 68.5857 4.05231Z" fill="black"/>
<path d="M51.8264 32.3064L51.919 32.319C52.0552 32.6179 51.9798 39.8823 51.9822 40.871C51.1251 40.649 50.511 40.3538 49.8104 39.7862C49.4511 39.4499 49.1659 39.0464 48.9623 38.5906C48.5014 37.559 48.4832 36.2637 48.8751 35.2056C49.4034 33.7792 50.5221 32.9105 51.8264 32.3064Z" fill="white"/>
<path d="M85.9443 32.0519C86.6683 32.1969 87.2874 32.4948 87.8507 32.9912C88.765 33.7971 89.3873 35.0529 89.4532 36.2965C89.52 37.5552 89.1011 38.5664 88.3014 39.4963C87.6072 40.2233 86.904 40.5204 85.9588 40.6935L85.9443 32.0519Z" fill="white"/>
<path d="M59.085 55.0055C59.6477 55.2548 60.1721 55.7104 60.7066 56.0337C61.9115 56.7625 63.2487 57.3287 64.5965 57.7043C68.1504 58.6946 72.0245 58.4324 75.4163 56.9644C76.4266 56.5271 77.3656 55.9706 78.3117 55.4047C78.3248 58.0442 78.1545 60.001 76.7891 62.3179C76.5526 62.7048 76.2751 63.0824 75.9852 63.4276C74.3467 65.3787 71.8878 66.5925 69.4025 66.7491C66.8458 66.9101 64.2626 66.0324 62.3477 64.2595C60.5894 62.6315 59.4597 60.4467 59.2091 58.0082C59.107 57.015 59.1429 56.0035 59.085 55.0055Z" fill="white"/>
<path d="M68.1588 5.85467C69.56 5.78173 71.0477 5.91776 72.424 6.17565C77.3659 7.10162 82.0465 10.1353 84.9114 14.4237C88.2424 19.4095 89.1402 25.1371 88.103 31.0347C87.4191 30.6214 86.7044 30.3733 85.9549 30.1236C85.9531 29.2289 86.1449 26.6859 85.8077 26.0068C85.5674 25.5229 84.5182 25.6599 84.0692 25.6772C78.6595 25.8848 73.5324 24.6046 68.483 22.698C67.5341 22.2996 66.5873 21.8644 65.6644 21.405C64.8981 21.0235 63.9969 20.396 63.1628 20.2357C62.3266 20.4941 52.7664 26.5857 52.168 27.1747C51.8383 27.4996 51.967 29.8101 51.9584 30.3982C51.5308 30.5514 51.1116 30.7382 50.6917 30.9124C50.3094 29.6779 50.1901 28.3432 50.1252 27.0524C49.85 21.577 51.315 16.2181 54.9232 12.1026C58.3891 8.14919 63.0624 6.09944 68.1588 5.85467Z" fill="white"/>
<path d="M63.147 22.1744C63.391 22.1926 67.1744 24.0447 67.8547 24.3268C73.0898 26.4981 78.5789 27.6212 84.2202 27.4674C84.2566 30.6413 84.2216 33.8161 84.2236 36.9901C84.2249 38.9467 84.3693 41.0037 84.1396 42.9401C83.982 44.2682 83.6273 45.552 83.1145 46.7788C81.3229 51.0655 78.1576 53.9497 74.0056 55.6398C72.3537 56.1839 70.7455 56.5536 69.0016 56.5524C65.1079 56.5501 61.1268 54.8661 58.3761 52.0041C55.8515 49.3776 54.0876 45.8424 53.751 42.1289C53.5857 40.3069 53.6937 38.4009 53.6952 36.5705L53.7001 28.2964C54.8228 27.4323 56.0697 26.7033 57.2629 25.9496C59.233 24.7052 61.2101 23.4741 63.147 22.1744Z" fill="white"/>
<path d="M62.4246 37.034C62.6707 37.0096 62.9275 36.9938 63.1683 37.0652C63.5408 37.1759 63.8736 37.4495 64.0455 37.811C64.2015 38.1391 64.2234 38.5172 64.1003 38.8603C63.9115 39.3861 63.5351 39.5836 63.0658 39.7877C62.8038 39.8134 62.5547 39.8284 62.3012 39.74C61.9246 39.6087 61.6039 39.3214 61.4436 38.942C61.3037 38.6107 61.2932 38.235 61.4243 37.8992C61.6138 37.4145 61.9762 37.2144 62.4246 37.034Z" fill="black"/>
<path d="M75.5724 36.9084C75.8732 36.9333 76.1112 36.9783 76.3698 37.1475C76.7536 37.3987 77.0077 37.7865 77.0838 38.2518C77.16 38.717 77.0472 39.2 76.776 39.5784C76.4449 40.0408 76.0261 40.2313 75.4887 40.3098C75.176 40.2495 74.8857 40.1826 74.614 40.0028C74.2423 39.7566 73.9703 39.3582 73.8916 38.9064C73.8128 38.4539 73.9185 37.9801 74.1913 37.6161C74.5548 37.1314 75.0108 36.9892 75.5724 36.9084Z" fill="black"/>
<path d="M61.7446 31.7114C62.8736 31.6024 64.3644 31.9847 65.2335 32.7593C65.4013 32.9088 65.5802 33.1228 65.5597 33.3692C65.5358 33.657 65.2511 33.9178 65.0335 34.0656C64.4759 34.4445 63.7404 33.8955 63.2096 33.6715C62.984 33.5765 62.7307 33.534 62.4925 33.4854C61.357 33.4537 60.8565 33.8964 59.8369 34.1975C59.5775 34.274 59.2346 34.2914 59.0047 34.1222C58.8237 33.9888 58.7365 33.7741 58.7025 33.5542C58.6623 33.2953 58.706 33.0554 58.866 32.8479C59.4011 32.154 60.9311 31.8108 61.7446 31.7114Z" fill="black"/>
<path d="M75.1983 31.712C75.3198 31.6992 75.4451 31.6989 75.5674 31.6985C76.5255 31.6955 78.0496 32.0091 78.7312 32.758C78.9382 32.9854 79.0735 33.2913 79.0481 33.6086C79.0309 33.8217 78.9417 34.0182 78.7642 34.1387C78.0259 34.6395 77.0744 33.7768 76.3584 33.5864C76.3317 33.5793 76.3047 33.5732 76.278 33.5666C75.2155 33.3285 74.5045 33.7466 73.543 34.1006C73.2451 34.2104 72.8269 34.2881 72.5404 34.104C72.3868 34.0053 72.2957 33.8432 72.2569 33.6643C72.1911 33.361 72.2199 33.0526 72.3985 32.7961C72.891 32.0886 74.4059 31.8149 75.1983 31.712Z" fill="black"/>
<path d="M68.0424 38.2139C68.3283 38.2695 68.685 38.3399 68.8374 38.632C69.1459 39.2237 68.1544 42.4475 67.9708 43.2615C68.6303 43.3881 69.4828 43.3562 70.0749 43.6964C70.2656 43.8059 70.416 43.9682 70.468 44.1945C70.525 44.4422 70.459 44.8074 70.3 45.0048C70.1131 45.2368 69.8229 45.266 69.5532 45.2978C68.7002 45.1422 66.8261 45.0968 66.1892 44.5381C66.1035 44.2364 66.1275 43.9281 66.1647 43.6194C66.2623 42.8086 67.0659 39.3235 67.3803 38.6385C67.5078 38.3604 67.7819 38.2979 68.0424 38.2139Z" fill="black"/>
<path d="M72.0438 47.8468C72.3405 47.8229 72.5687 47.8231 72.8407 47.9601C73.0168 48.0489 73.172 48.1998 73.212 48.4072C73.2549 48.6296 73.1758 48.9021 73.0708 49.0948C72.5949 49.9676 71.2766 50.5462 70.3751 50.7874C68.6883 51.2386 67.0318 50.8971 65.548 49.9947C65.3967 49.8868 65.2404 49.779 65.105 49.6499C64.8389 49.3959 64.6904 49.0242 64.6944 48.6478C64.6967 48.4397 64.7628 48.234 64.9295 48.1048C65.6647 47.535 66.3352 48.4072 66.92 48.7504C67.322 48.9863 67.7717 49.1307 68.2281 49.1967C69.7573 49.418 70.8697 48.7607 72.0438 47.8468Z" fill="black"/>
<path d="M27.9778 93.1238C29.7605 93.0072 31.6152 93.1188 33.4051 93.1252H43.3986L77.6479 93.1156L96.615 93.1238L102.124 93.1162C102.926 93.1151 103.855 93.015 104.643 93.1345C105.171 93.2145 105.623 93.6536 105.918 94.0873C106.158 94.4415 106.098 95.1978 106.061 95.6223C105.93 97.1262 105.663 98.6371 105.457 100.133L104.348 108.24L101.177 131.373C101.107 131.94 101.057 132.526 100.941 133.084C100.805 133.741 100.519 134.291 99.9528 134.645C99.5996 134.866 99.2099 134.878 98.8072 134.903C97.8143 134.963 96.7978 134.92 95.8027 134.919L90.1813 134.914L72.2038 134.898L42.6764 134.908L37.4919 134.909C36.3507 134.915 34.0295 135.093 33.0531 134.803C32.6062 134.67 32.0969 134.266 31.8879 133.831C31.4678 132.956 31.2929 130.286 31.1499 129.206L30.3248 123.125L27.9461 105.604C27.4948 102.295 26.9382 98.9809 26.5992 95.6581C26.5561 95.2359 26.4838 94.7517 26.6434 94.3497C26.891 93.7255 27.3985 93.3716 27.9778 93.1238Z" fill="white"/>
<path d="M57.2307 54.85C57.3665 54.8771 57.3569 54.9083 57.3801 55.0556C57.5178 55.927 57.3795 57.1667 57.4919 58.1424C57.791 60.7415 58.9037 63.2422 60.696 65.0957C62.8571 67.3305 65.7365 68.5937 68.7944 68.5766C71.8445 68.5596 74.7707 67.2549 76.9133 65.0068C78.6834 63.1497 79.7676 60.637 79.9914 58.042C80.0824 56.9874 80.0336 55.8947 80.0298 54.8352C84.1108 56.0918 88.2611 57.1519 92.3724 58.3002C94.2441 58.823 96.1871 59.2591 98.0309 59.8727C101.894 61.1582 105.322 63.4176 108.242 66.3235C110.599 68.6701 112.495 71.3806 113.838 74.4743C114.91 76.9434 115.533 79.5899 116.262 82.1824L119.122 92.293L123.431 107.542C124.29 110.588 125.245 113.667 125.947 116.754C126.114 117.491 126.219 118.258 126.23 119.016C126.285 122.733 124.844 126.232 122.345 128.873C120.412 130.917 117.798 132.433 115.016 132.689C113.504 132.828 111.91 132.727 110.39 132.727L102.792 132.75C102.883 130.503 103.371 127.929 103.679 125.673C104.152 122.216 104.558 118.737 105.106 115.293C106.069 115.289 109.173 115.539 109.885 115.097C110.095 114.966 110.253 114.772 110.291 114.513C110.328 114.267 110.26 114.051 110.099 113.867C109.93 113.675 109.639 113.579 109.4 113.536C108.561 113.384 106.339 113.514 105.326 113.514C105.928 110.156 106.245 106.715 106.716 103.333L107.448 97.9924C107.577 97.0056 107.77 95.9753 107.772 94.9786C107.774 93.9903 107.291 93.0051 106.61 92.3256C105.23 90.9492 102.879 91.3287 101.111 91.3324C101.112 90.2263 101.275 84.1608 100.946 83.6701C100.826 83.4909 100.663 83.3679 100.45 83.3352C100.224 83.3007 99.8485 83.3757 99.6879 83.5582C99.5193 83.7498 99.4731 84.173 99.4505 84.4206C99.3776 85.2153 99.4408 86.0627 99.4461 86.8618L99.4583 91.3368L98.1004 91.327L38.6894 91.3149L38.7028 86.929C38.7089 86.1239 38.7726 85.2615 38.6914 84.4619C38.668 84.2313 38.6382 84.0498 38.5044 83.8596C38.3334 83.6168 38.0804 83.5035 37.7964 83.4862C37.5795 83.4729 37.425 83.5498 37.2751 83.7089C37.1044 83.8901 37.0381 84.2144 37.0073 84.4551C36.9192 85.1415 36.9966 85.8888 36.9954 86.583V91.3091C35.0232 91.325 33.0497 91.3012 31.0775 91.2955C30.0664 91.2925 28.9789 91.2051 27.9767 91.3454C26.9669 91.4869 26.1358 91.9869 25.5288 92.8359C25.0563 93.4966 24.8263 94.2428 24.8331 95.0627C24.8442 96.4008 25.1526 97.8189 25.3369 99.1479L26.273 106.162L29.9158 133.054C25.7912 133.078 21.6404 133.559 17.8851 131.389C14.645 129.517 12.356 126.414 11.3459 122.734C10.8314 120.86 10.7069 118.868 11.0119 116.943C11.3049 115.094 11.9252 113.257 12.4353 111.462L14.7378 103.321L19.5611 86.4882C20.9685 81.6444 22.2062 76.3976 24.6038 71.9696C27.5517 66.5255 32.3166 62.3154 38.0269 60.2724C40.3976 59.4241 42.9145 58.918 45.3399 58.2574C49.3175 57.174 53.2713 56.0021 57.2307 54.85Z" fill="white"/>
</g>
<defs>
<clipPath id="clip0_378_341">
<rect width="137" height="142" fill="white"/>
</clipPath>
</defs>
</svg>
