<svg width="162" height="153" viewBox="0 0 162 153" fill="none" xmlns="http://www.w3.org/2000/svg">
<g clip-path="url(#clip0_378_186)">
<path d="M0 0H162V153H0V0Z" fill="white"/>
<path d="M13.0804 70.0184C14.1695 69.9675 15.1137 70.0476 16.0673 70.5844C17.1695 71.2049 17.9999 72.2353 18.2847 73.4215C18.5693 74.6077 18.3252 75.9071 17.6362 76.9338C16.8922 78.042 15.715 78.693 14.3843 78.9795C13.1988 79.1046 12.0213 78.8908 11.016 78.2695C9.93082 77.5991 9.20623 76.5338 8.9592 75.3374C8.71639 74.1614 8.9593 72.936 9.68792 71.9477C10.5151 70.8256 11.68 70.2579 13.0804 70.0184Z" fill="black"/>
<path d="M13.362 71.5147C14.0164 71.4827 14.6145 71.5766 15.186 71.8927C15.9664 72.3245 16.5304 73.0974 16.7166 73.9298C16.8811 74.6652 16.708 75.4141 16.2769 76.041C15.7284 76.8388 14.952 77.2595 13.9933 77.4684C13.2774 77.4996 12.6679 77.4118 12.0481 77.0502C11.3194 76.6253 10.7799 75.9212 10.5925 75.1308C10.4064 74.3461 10.5873 73.5001 11.0634 72.8354C11.6185 72.0604 12.421 71.7003 13.362 71.5147Z" fill="white"/>
<path d="M79.8786 5.5625C81.0888 5.57577 82.1565 5.86021 83.0969 6.60959C84.0711 7.38581 84.6759 8.53469 84.7791 9.73172C84.8827 10.9325 84.465 12.1773 83.6267 13.0883C82.6841 14.1124 81.481 14.5165 80.0893 14.6142C78.9641 14.6169 77.8923 14.2978 77.0091 13.6338C75.9967 12.8728 75.3797 11.7264 75.2559 10.5153C75.1366 9.34708 75.5172 8.14164 76.3157 7.23922C77.2426 6.1917 78.4634 5.68887 79.8786 5.5625Z" fill="black"/>
<path d="M79.6638 7.18337C80.2937 7.1506 80.8546 7.19542 81.432 7.4651C82.189 7.81855 82.7375 8.47164 82.9837 9.22943C83.2314 9.9921 83.1336 10.7918 82.7146 11.484C82.2168 12.3058 81.4535 12.7481 80.5132 12.9977C79.7984 13.0739 79.1322 12.9833 78.4995 12.6437C77.7656 12.2497 77.202 11.5823 76.9963 10.805C76.7924 10.034 76.9332 9.24012 77.3977 8.57729C77.9371 7.80735 78.7289 7.37995 79.6638 7.18337Z" fill="white"/>
<path d="M149.553 74.6634C150.656 74.6601 151.718 74.9401 152.612 75.564C153.628 76.274 154.284 77.3808 154.443 78.5595C154.609 79.7818 154.26 81.0882 153.431 82.0505C152.502 83.1296 151.272 83.5775 149.845 83.7241C148.688 83.7084 147.585 83.4142 146.67 82.7277C145.646 81.9596 144.959 80.837 144.842 79.5995C144.731 78.4187 145.165 77.1719 145.978 76.2669C146.911 75.2283 148.151 74.7856 149.553 74.6634Z" fill="black"/>
<path d="M149.485 76.2211C150.144 76.2648 150.729 76.3449 151.304 76.6846C152.03 77.1122 152.531 77.8191 152.702 78.6077C152.866 79.3644 152.716 80.1762 152.257 80.8191C151.707 81.5889 150.9 81.9529 149.96 82.1107C149.23 82.1228 148.545 82.0053 147.918 81.6351C147.212 81.2187 146.725 80.5242 146.57 79.7546C146.415 78.979 146.601 78.1517 147.081 77.505C147.667 76.7168 148.507 76.3642 149.485 76.2211Z" fill="white"/>
<path d="M139.831 52.5608L140.102 52.4216C146.067 49.3559 150.462 43.9455 152.38 37.8241C154.232 31.9154 153.489 24.9015 150.356 19.4917C146.91 13.5396 141.18 8.97858 134.25 7.0641C131.321 6.25502 128.21 5.93282 125.158 6.06015C118.359 6.37335 111.774 9.27828 107.219 14.0512C105.143 16.2272 103.534 18.7312 102.278 21.4183L102.143 21.7065L101.825 21.7065L48.4306 21.7147L48.4305 21.7147L33.3542 21.7138C33.3542 21.7138 33.3541 21.7138 33.3541 21.7138C32.7075 21.714 32.0202 21.7021 31.3157 21.6899C29.2317 21.6539 26.9978 21.6153 25.2252 21.878C23.3606 22.1544 21.5625 23.1134 20.2293 24.3882C18.422 26.1165 17.4263 28.3992 17.4476 30.8094C17.4697 33.2935 18.5235 35.7047 20.4103 37.4553L20.4104 37.4553C23.3996 40.2289 26.5142 40.2218 30.6167 40.2124L30.6968 40.2122C31.2827 40.2109 31.87 40.2079 32.4583 40.2049C34.003 40.197 35.5539 40.189 37.1012 40.2117L37.594 40.2189L37.5939 40.7118L37.5846 74.2445C37.5855 76.273 37.5918 78.3026 37.5981 80.333C37.6157 86.0329 37.6334 91.7387 37.5332 97.4425L37.5237 97.9832L36.9854 97.9314C32.4727 97.4967 28.053 98.0287 23.8701 99.6793C23.2751 99.9142 22.6915 100.181 22.0988 100.457C22.0136 100.497 21.9282 100.536 21.8425 100.576C21.3357 100.813 20.8199 101.054 20.2962 101.277L19.6013 101.573L19.6002 100.818L19.5829 88.8476L19.5829 88.8471L19.581 85.2371L19.581 85.236C19.5814 85.0245 19.5868 84.8227 19.5919 84.6274C19.603 84.2101 19.6133 83.8226 19.5727 83.4342C19.5617 83.3293 19.5422 83.2206 19.5113 83.127C19.4794 83.0305 19.4461 82.9831 19.4281 82.9653C19.4269 82.9648 19.4248 82.9641 19.4216 82.9634C19.4059 82.9595 19.3725 82.9554 19.3129 82.9606C19.2687 82.9645 19.1813 82.988 19.0857 83.0375C19.0411 83.0605 19.0034 83.0849 18.9749 83.1072C18.9487 83.1278 18.938 83.1407 18.9365 83.1425C18.9363 83.1428 18.9362 83.1428 18.9364 83.1426L18.9362 83.1429C18.933 83.1474 18.9307 83.1509 18.9292 83.1533C18.9292 83.1534 18.9292 83.1535 18.9292 83.1536L18.9291 83.1539C18.8879 83.6345 18.9025 84.1109 18.918 84.6144C18.9261 84.8791 18.9345 85.1514 18.9351 85.4359L18.9443 90.42V90.4202L18.9552 97.6308C18.9559 98.005 18.9538 98.3769 18.9518 98.747C18.9462 99.7701 18.9406 100.779 18.993 101.787L19.0073 102.062L18.7822 102.221C12.7887 106.457 8.6956 112.042 7.62756 119.08C6.65676 125.477 8.38951 131.862 12.5132 137.035C16.7526 142.353 23.0533 145.682 30.0316 146.611C31.9758 146.87 33.9462 146.855 35.9474 146.84C36.4065 146.837 36.8673 146.833 37.3297 146.833H37.3308L46.788 146.849H46.7894L116.268 146.769H116.269L137.08 146.774H137.08L143.417 146.771H143.418L143.419 147.271C143.698 147.27 143.98 147.272 144.263 147.274C145.304 147.282 146.362 147.29 147.382 147.157C149.493 146.881 151.458 145.928 152.96 144.506C154.481 143.065 155.738 140.834 155.735 138.758C155.733 137.918 155.414 137.037 154.749 136.46L139.831 52.5608ZM139.831 52.5608L139.83 52.8654L139.803 67.9321L139.831 52.5608Z" stroke="black"/>
<path d="M125.771 33.6196C131.713 33.6007 137.669 33.5063 143.61 33.6036C143.397 34.5332 143.169 35.4503 142.888 36.364C142.841 36.5018 142.805 36.656 142.697 36.7629C142.539 36.9185 139.583 36.8287 139.143 36.8272L125.773 36.8164L125.771 33.6196Z" fill="white"/>
<path d="M125.079 28.8372L143.778 28.8015C143.908 29.8609 143.899 30.9196 143.896 31.984C137.863 32.0575 131.82 31.9896 125.787 31.9905C125.71 30.916 125.366 29.8743 125.079 28.8372Z" fill="white"/>
<path d="M121.612 23.9848C128.427 23.9197 135.255 23.9158 142.07 23.9799C142.661 24.9901 143.112 26.0703 143.393 27.1936C137.016 27.2559 130.629 27.1951 124.251 27.1924C123.49 26.0018 122.6 25.011 121.612 23.9848Z" fill="white"/>
<path d="M125.774 38.4041C131.147 38.3974 136.527 38.3463 141.899 38.42C140.819 40.3655 139.52 41.8027 137.764 43.2305C134.068 46.0175 130.45 47.0011 125.775 47.0068L125.774 38.4041Z" fill="white"/>
<path d="M132.613 130.019L132.612 130.02C129.065 130.032 125.515 130.025 121.963 130.019C116.15 130.008 110.332 129.997 104.52 130.07L104.518 127.938L114.656 127.913L114.657 127.913L142.943 127.939L142.937 130.015L132.613 130.019Z" fill="white" stroke="black"/>
<path d="M104.534 125.313L104.533 122.868L142.964 122.861L142.966 125.306L104.534 125.313Z" fill="white" stroke="black"/>
<path d="M142.943 135.187L104.514 135.243L104.513 132.645C107.799 132.591 111.093 132.605 114.389 132.619C115.696 132.625 117.004 132.63 118.312 132.632L118.312 132.632L142.956 132.655C142.947 133.3 142.946 133.946 142.945 134.588C142.944 134.788 142.944 134.988 142.943 135.187Z" fill="white" stroke="black"/>
<path d="M126.156 15.1226C127.673 14.9964 129.327 15.1824 130.805 15.5082C134.887 16.4085 138.869 19.054 141.087 22.4152C136.817 22.3025 132.535 22.3514 128.263 22.3429L122.332 22.3288C121.224 22.3235 120.045 22.3744 118.947 22.2517C118.04 22.1504 117.205 21.785 116.337 21.5368C115.272 21.2321 114.22 21.15 113.112 21.1168C116.774 17.3535 120.749 15.4485 126.156 15.1226Z" fill="white"/>
<path d="M35.0778 30.1639L35.0779 30.1639C35.2668 32.236 34.5927 34.2216 33.1599 35.818C31.8651 37.2605 29.9776 38.2667 27.9825 38.4237L27.9825 38.4236L27.9786 38.424C26.0049 38.595 24.1599 38.1649 22.5566 37.0811C20.7805 35.8805 19.577 34.0783 19.2319 32.0614L19.2318 32.0614C18.8916 30.0741 19.3655 28.0562 20.6305 26.4363C22.0598 24.6061 24.0205 23.6601 26.4274 23.3045L26.4273 23.3045L26.4406 23.3026L26.4435 23.3021L26.4447 23.3019C28.4647 23.1477 30.6276 23.879 32.1993 25.0979C33.8435 26.3731 34.8975 28.1843 35.0778 30.1639Z" fill="white" stroke="black"/>
<path d="M104.501 112.622L104.51 111.102C106.104 111.695 107.678 112.383 109.256 113.073C109.874 113.343 110.492 113.614 111.113 113.879L111.113 113.879L123.777 119.272L123.954 119.347L124.135 119.285C124.638 119.114 125.149 118.875 125.626 118.653C125.837 118.555 126.041 118.459 126.235 118.375L130.311 116.594L130.313 116.593L142.966 110.995C142.979 111.235 142.989 111.533 142.997 111.877C143.018 112.776 143.023 113.964 143.02 115.185C143.016 116.869 142.997 118.583 142.985 119.702C142.983 119.932 142.981 120.136 142.979 120.31L104.515 120.309L104.501 112.622Z" fill="white" stroke="black"/>
<path d="M132.494 104.188C136.043 106.024 139.706 107.946 141.402 108.855C139.877 109.652 138.088 110.395 136.355 111.113C135.508 111.465 134.675 111.811 133.892 112.155L133.892 112.155L126.931 115.216C126.931 115.216 126.93 115.216 126.929 115.217C126.605 115.357 126.29 115.499 125.978 115.64C125.376 115.912 124.788 116.177 124.18 116.405C124.036 116.459 124 116.467 123.978 116.469C123.962 116.471 123.933 116.472 123.834 116.457C122.058 115.675 120.259 114.918 118.464 114.163C117.212 113.637 115.962 113.111 114.724 112.578L114.724 112.578C113.884 112.217 113.043 111.851 112.2 111.483C110.214 110.618 108.218 109.748 106.203 108.933C109.598 107.165 113.022 105.433 116.463 103.748L116.463 103.748C117.232 103.371 118.009 102.998 118.789 102.624C120.577 101.767 122.379 100.903 124.126 99.9706C124.13 99.9724 124.135 99.9744 124.139 99.9763C124.272 100.034 124.46 100.12 124.7 100.235C125.178 100.463 125.844 100.792 126.641 101.193C128.234 101.993 130.341 103.074 132.494 104.188Z" fill="white" stroke="black"/>
<path d="M39.268 97.3091L39.2608 41.1861C41.2144 41.1446 43.1798 41.1683 45.1474 41.192C45.6003 41.1974 46.0534 41.2029 46.5065 41.2076L46.4777 99.8936C44.0192 98.7257 42.067 97.9559 39.268 97.3091Z" fill="white" stroke="black"/>
<path d="M87.7807 143.344C86.021 141.862 85.1691 140.023 84.9376 137.856L88.7503 137.849L88.7509 137.849L132.86 137.869L132.864 137.869L146.648 137.777C146.649 137.777 146.649 137.777 146.65 137.777C147.229 137.776 147.819 137.765 148.412 137.753C149.998 137.723 151.604 137.692 153.074 137.864C153.245 137.975 153.342 138.071 153.408 138.196L153.408 138.197C153.526 138.421 153.553 138.77 153.486 139.213C153.42 139.643 153.279 140.085 153.147 140.441L153.147 140.441C152.436 142.362 150.912 143.713 148.931 144.608C148.163 144.909 147.34 145.087 146.507 145.139C145.554 145.199 144.593 145.187 143.617 145.176C143.272 145.172 142.926 145.168 142.577 145.167H142.577L135.737 145.149H135.736L113.669 145.147L113.667 145.147L98.9032 145.187L98.9031 145.187L94.5943 145.2C94.5942 145.2 94.5941 145.2 94.594 145.2C94.594 145.2 94.594 145.2 94.5939 145.2C94.3909 145.201 94.1904 145.203 93.9922 145.205C93.2578 145.214 92.5543 145.222 91.8648 145.135L91.8648 145.135C90.3429 144.944 88.9244 144.307 87.7807 143.344L87.7807 143.344Z" fill="white" stroke="black"/>
<path d="M126.273 49.1901L126.287 54.2823C127.33 54.2768 128.345 54.2541 129.366 54.1415M126.273 49.1901L129.42 54.6385M126.273 49.1901C131.072 49.1221 135.097 47.94 138.991 45.0805L138.991 45.0806L139.001 45.0734C140.37 44.0168 141.53 42.8567 142.557 41.4889C145.497 37.5739 146.748 32.7566 145.852 27.9937C144.94 23.1411 141.973 18.9032 137.704 16.1288C133.528 13.4147 128.081 12.3772 123.114 13.2623C118.355 14.1102 113.481 16.9021 110.641 20.713M129.366 54.1415L129.42 54.6385M129.366 54.1415C129.366 54.1415 129.366 54.1415 129.365 54.1415L129.42 54.6385M129.366 54.1415C134.988 53.5204 140.482 51.0872 144.469 47.2932C148.99 42.9915 151.668 37.1569 151.617 31.0963C151.564 24.8914 148.942 18.8454 144.239 14.485C139.544 10.1325 132.933 7.54027 126.328 7.61205C126.145 7.61405 125.961 7.62035 125.774 7.62909C125.775 7.62904 125.776 7.62899 125.777 7.62894L125.748 7.12975C125.94 7.12077 126.131 7.11417 126.323 7.11208C133.055 7.03891 139.79 9.67882 144.579 14.1183C149.383 18.5725 152.063 24.7495 152.117 31.092C152.169 37.3044 149.424 43.2679 144.813 47.6555C140.741 51.5305 135.143 54.0063 129.42 54.6385M104.359 21.1986C104.208 21.1972 104.058 21.1957 103.908 21.1942L103.819 21.1933C103.887 21.0275 103.959 20.8615 104.034 20.6954C104.216 20.6972 104.399 20.699 104.582 20.7008C104.504 20.8668 104.43 21.0328 104.359 21.1986Z" fill="white" stroke="black"/>
<path d="M32.9288 99.3692L32.9289 99.3692C33.0051 99.3651 33.0803 99.3621 33.1547 99.3604L33.1551 99.3604C39.3414 99.2173 45.4493 101.439 49.9248 105.464C54.6705 109.731 57.495 115.472 57.642 121.659C57.7875 127.777 55.5809 133.702 51.0631 138.132C46.6419 142.468 40.3903 145.061 34.0062 145.193C27.9674 145.244 21.932 143.351 17.3911 139.575C12.4955 135.504 9.51623 130.084 9.1293 123.932C8.75363 117.958 10.8853 111.989 15.1189 107.52C19.7633 102.618 25.9605 99.7427 32.9288 99.3692Z" fill="white" stroke="black"/>
<path d="M33.353 106.297C33.4614 106.293 33.5008 106.288 33.6001 106.292C33.9314 106.308 34.2557 106.507 34.5386 106.657C37.3374 108.141 40.0544 109.83 42.8008 111.403C43.9663 112.071 48.0322 114.181 48.6647 114.838L48.6606 125.358C48.662 127.159 48.7389 128.991 48.6298 130.789C47.3817 131.78 44.6734 133.101 43.1556 133.938L33.7672 139.159C33.5329 139.187 33.3178 139.214 33.0966 139.113C32.3923 138.793 31.7099 138.333 31.0392 137.947L26.9354 135.597L21.5495 132.557C20.5718 132.004 19.5375 131.491 18.6178 130.855C18.4016 130.044 18.4206 115.698 18.5805 114.62C19.5843 113.844 21.7245 112.812 22.9395 112.115L29.482 108.421C30.7566 107.705 32.0249 106.921 33.353 106.297Z" fill="black"/>
<path d="M33.6016 108.013C35.0928 108.806 36.532 109.705 37.9951 110.545L46.95 115.674L46.9442 129.906C45.8015 130.649 44.5039 131.281 43.3091 131.955L33.5712 137.354L33.4528 137.395C33.1175 137.382 30.8048 135.889 30.3735 135.637C27.0227 133.679 23.6075 131.819 20.2412 129.885L20.2512 115.589C21.9477 114.468 23.8055 113.503 25.5921 112.515C28.2735 111.034 30.9563 109.551 33.6016 108.013Z" fill="white"/>
<path d="M33.4434 109.584C33.6463 109.606 33.8082 109.657 33.9888 109.745C36.2284 110.839 38.3671 112.234 40.5168 113.481C41.7599 114.202 44.5051 115.559 45.454 116.466C45.5067 116.516 45.6062 116.616 45.6358 116.68C45.8248 117.09 45.7236 127.742 45.7128 129.096C44.8098 129.633 43.8574 130.112 42.9408 130.631L33.6125 135.912C33.0346 135.793 23.3851 130.232 22.2426 129.511C21.927 129.312 21.652 129.1 21.3849 128.845C21.2907 126.554 21.3636 124.239 21.3674 121.944C21.3702 120.139 21.2573 118.253 21.4691 116.458C22.539 115.547 24.2106 114.794 25.4565 114.084C28.1049 112.574 30.7476 111.015 33.4434 109.584Z" fill="black"/>
<path d="M23.055 118.206C26.3583 119.852 29.4416 121.953 32.6687 123.737L32.6785 130.087C32.6797 131.225 32.7633 132.43 32.6372 133.559C30.7549 132.53 28.9186 131.418 27.0613 130.349C25.7373 129.587 24.3538 128.879 23.0804 128.044C23.0023 124.768 23.0534 121.482 23.055 118.206Z" fill="white"/>
<path d="M43.8898 118.185C44.126 118.466 44.0211 127.007 44.0248 128.098C40.7979 129.823 37.6952 131.762 34.4664 133.49C34.2777 133.294 34.3715 124.608 34.3919 123.631C35.9009 122.872 37.3438 121.959 38.7946 121.104C40.4797 120.112 42.1907 119.156 43.8898 118.185Z" fill="white"/>
<path d="M33.472 111.46C34.0028 111.521 41.9179 116.133 43.0027 116.757C41.984 117.452 40.8288 118.03 39.754 118.648L33.5715 122.232C33.5193 122.237 33.4671 122.251 33.4149 122.246C33.1082 122.217 25.0224 117.356 24.0713 116.862C27.1678 115.002 30.3303 113.251 33.472 111.46Z" fill="white"/>
<path d="M34.2269 23.3328C36.1179 24.9936 37.3942 26.9747 37.7483 29.6143C38.108 32.2954 37.2857 35.0505 35.5404 37.1715L35.5404 37.1715C35.109 37.6956 34.62 38.1516 34.1138 38.5726L88.3193 38.621H88.3203L106.842 38.6006L106.843 38.6006C107.695 38.6017 108.558 38.5917 109.426 38.5817C110.956 38.564 112.501 38.5461 114.021 38.5884L114.021 38.5884C114.234 38.5944 114.525 38.6092 114.812 38.6618C115.087 38.712 115.426 38.8079 115.688 39.0201L115.688 39.0202C115.945 39.2282 116.029 39.5474 116.066 39.7346C116.099 39.8997 116.114 40.081 116.124 40.2C116.126 40.2288 116.128 40.2539 116.13 40.2741C116.197 40.9652 116.192 41.6815 116.187 42.36C116.186 42.5797 116.184 42.7953 116.185 43.0049L34.2269 23.3328ZM34.2269 23.3328C34.2869 23.3322 34.347 23.3317 34.4072 23.3311C34.6527 23.3287 34.8994 23.3264 35.1479 23.323C35.149 23.323 35.1501 23.323 35.1511 23.323L113.013 23.2544L113.014 23.2544C115.907 23.2467 118.609 24.223 120.641 26.1521C122.091 27.5281 123.11 29.4258 123.436 31.3346C123.596 32.2683 123.633 33.4666 123.627 34.7125C123.625 35.3249 123.612 35.9412 123.599 36.5363L123.599 36.5575C123.587 37.1571 123.575 37.7364 123.575 38.2592C123.575 38.2592 123.575 38.2593 123.575 38.2593L123.571 51.46V51.4602L123.538 97.3375C121.836 98.236 120.104 99.0867 118.366 99.9401C117.826 100.206 117.285 100.471 116.744 100.739L116.744 100.739L116.735 100.743C116.565 100.831 116.392 100.915 116.216 100.996C116.163 96.1177 116.179 91.237 116.195 86.3536C116.2 84.6634 116.206 82.9729 116.208 81.2821V81.2811L116.201 59.8747V59.8742L116.207 47.07L116.207 47.067L116.185 43.0054L34.2269 23.3328Z" fill="white" stroke="black"/>
<path d="M82.823 136.686C82.8317 136.649 82.8399 136.611 82.8482 136.573C82.9014 136.327 82.9577 136.067 83.187 135.919M82.823 136.686L89.496 135.746M82.823 136.686C82.8092 137.627 82.8039 138.549 82.9996 139.478L82.823 136.686ZM83.187 135.919C83.331 135.825 83.5014 135.776 83.674 135.76C84.1569 135.715 84.6591 135.724 85.1547 135.734C85.3513 135.737 85.5468 135.741 85.7396 135.741L89.496 135.746M83.187 135.919L82.9153 135.499L82.9152 135.499C82.9151 135.499 82.915 135.499 82.9149 135.499L83.187 135.919ZM89.496 135.746L89.4966 135.246H89.4964L89.496 135.746ZM101.792 124.757C101.813 128.261 101.835 131.762 101.831 135.256L86.0025 145.263L45.1542 145.293C49.5517 143.251 53.2743 140.313 56.0253 136.323C60.0305 130.513 61.2607 123.5 59.7217 116.761C58.5241 111.516 55.5892 106.815 51.3883 103.24L51.0642 103.62L51.3882 103.24C51.3337 103.193 51.2787 103.146 51.2233 103.099C50.6051 102.572 49.9397 102.004 49.218 101.533V41.2228L113.476 41.232L113.481 102.345C112.97 102.633 112.436 102.889 111.888 103.152C111.58 103.3 111.267 103.45 110.952 103.609L104.662 106.768L104.66 106.769C104.444 106.879 104.222 106.988 103.995 107.1C103.339 107.423 102.651 107.762 102.021 108.156L101.789 108.301L101.786 108.574C101.724 113.961 101.758 119.362 101.792 124.757Z" fill="white" stroke="black"/>
<path d="M67.1433 116.278L87.0017 116.266L91.9899 116.275C93.0448 116.267 94.125 116.192 95.1759 116.243C95.4327 116.255 95.6869 116.283 95.9271 116.374C96.1622 116.464 96.3637 116.612 96.4461 116.848C96.5113 117.034 96.4966 117.297 96.3925 117.47C96.2229 117.751 96.0177 117.827 95.7073 117.914C88.7717 117.799 81.8196 117.875 74.8824 117.88L69.3198 117.887C68.6225 117.888 67.9031 117.954 67.2104 117.927C66.9879 117.918 66.7709 117.87 66.582 117.755C66.3717 117.628 66.2173 117.427 66.1789 117.19C66.146 116.988 66.205 116.786 66.3353 116.624C66.5538 116.352 66.8063 116.313 67.1433 116.278Z" fill="black"/>
<path d="M66.7358 126.121C68.3857 126.038 70.084 126.113 71.7395 126.115L81.2233 126.119L90.484 126.115C92.148 126.113 93.8488 126.041 95.5084 126.128C95.7988 126.144 96.1141 126.199 96.2945 126.442C96.4003 126.585 96.4272 126.77 96.4073 126.939C96.3639 127.31 96.1508 127.488 95.8612 127.709C95.8178 127.714 95.7746 127.719 95.7313 127.723C94.0369 127.847 92.2695 127.739 90.5655 127.738L80.8774 127.746L71.8056 127.741C70.3748 127.743 68.87 127.854 67.4484 127.747C67.0851 127.72 66.5915 127.658 66.3223 127.397C66.1652 127.245 66.1338 127.073 66.1674 126.868C66.2281 126.495 66.43 126.333 66.7358 126.121Z" fill="black"/>
<path d="M67.1696 106.644L85.8393 106.625L92.5031 106.655C93.4957 106.663 94.5025 106.624 95.4925 106.67C95.7248 106.681 95.9766 106.715 96.1688 106.849C96.3639 106.984 96.468 107.218 96.4742 107.444C96.4807 107.677 96.3921 107.921 96.2066 108.081C96.0217 108.24 95.789 108.271 95.5503 108.295C94.5923 108.388 93.5656 108.308 92.5998 108.307L86.5765 108.297L67.0634 108.308L61.0197 108.304C60.0984 108.306 59.1506 108.39 58.232 108.332C57.9421 108.314 57.6274 108.266 57.3822 108.108C57.1942 107.987 57.1037 107.828 57.0789 107.62C57.0517 107.391 57.1224 107.177 57.2966 107.014C57.535 106.792 57.9068 106.71 58.229 106.678C59.2317 106.576 60.3124 106.676 61.3246 106.678L67.1696 106.644Z" fill="black"/>
<path d="M61.9978 87.4446L91.423 87.4476L100.782 87.454C102.084 87.457 103.42 87.3771 104.716 87.4442C105.061 87.4619 105.485 87.493 105.76 87.7161C105.901 87.8301 105.99 88.0831 105.998 88.2573C106.008 88.4703 105.956 88.6144 105.799 88.7683C105.237 89.3184 101.963 89.0762 101.112 89.0716L70.5123 89.0598L62.4855 89.0668C61.0491 89.0743 59.5998 89.1315 58.1645 89.0982C57.9 89.092 57.5463 89.0901 57.3246 88.9353C57.1201 88.7923 57.0033 88.5908 56.9864 88.3529C56.9695 88.1132 57.0592 87.8594 57.2378 87.6859C57.6415 87.2937 61.2392 87.4465 61.9978 87.4446Z" fill="black"/>
<path d="M103.674 97.0817C104.291 97.0726 104.924 96.9889 105.502 97.2391C105.794 97.3658 105.939 97.5289 106.04 97.8118C106.03 98.0483 105.983 98.1931 105.797 98.3616C105.556 98.5809 105.219 98.6973 104.889 98.7233C103.345 98.845 101.715 98.7435 100.16 98.7411L90.8415 98.7341L59.1966 98.7275C58.6562 98.7325 57.854 98.827 57.3805 98.5659C57.1596 98.4441 56.9166 98.1106 56.8989 97.8651C56.8853 97.6758 56.9688 97.5594 57.1068 97.4337C57.3798 97.1848 57.9704 97.1267 58.3275 97.1082C59.7356 97.0351 61.2022 97.1197 62.617 97.1194L72.1954 97.117L103.674 97.0817Z" fill="black"/>
<path d="M54.6918 73.5314C67.903 73.389 81.1334 73.5044 94.3456 73.5488L103.416 73.5722C104.734 73.5755 106.751 73.4182 107.995 73.6852C108.163 73.7213 108.221 73.7382 108.309 73.8829C108.567 74.3124 108.652 78.8479 108.454 79.3967C108.344 79.7004 108.154 79.8168 107.873 79.9603C106.699 80.0375 105.492 79.9932 104.314 79.9975L97.9524 80.0126L78.294 80.0177L61.943 80.0171C60.5439 80.0182 55.5423 80.198 54.5428 79.9187C54.3659 79.8693 54.2635 79.8104 54.1854 79.6535C53.9941 79.27 54.0096 74.3613 54.1868 73.929C54.2898 73.678 54.4475 73.6232 54.6918 73.5314Z" fill="black"/>
<path d="M55.6729 75.082L106.811 75.2235C106.839 76.2769 106.821 77.3344 106.823 78.3883L55.6773 78.4434L55.6729 75.082Z" fill="white"/>
<path d="M81.6099 43.405C81.7653 43.4349 81.9232 43.4646 82.0709 43.5204C82.247 43.5869 82.3706 43.6879 82.4898 43.8249C83.2835 44.7366 83.9962 45.7333 84.7446 46.6803L89.6359 52.9124C90.6553 54.2126 93.2407 57.1392 93.8523 58.4418C93.3617 59.4688 91.5985 61.3062 90.808 62.2811L85.8398 68.302C84.7866 69.5883 83.7737 70.9471 82.6547 72.1799C82.5011 72.3492 82.3354 72.487 82.1396 72.6105C81.9526 72.6035 81.7349 72.605 81.5533 72.5602C81.3356 72.5064 81.1981 72.3964 81.0557 72.2406C80.331 71.4469 79.6676 70.5767 78.9904 69.7458L74.3068 63.9019L71.6858 60.6818C71.0782 59.9359 70.3949 59.1905 69.9326 58.3545L70.0397 58.2686L69.9831 58.2199C70.433 57.3488 71.1312 56.5714 71.7418 55.7952L73.9821 52.9112L78.8605 46.6043C79.5696 45.7005 80.2509 44.7438 81.0087 43.8784C81.1968 43.6635 81.3481 43.5343 81.6099 43.405Z" fill="black"/>
<path d="M90.3098 59.9902C90.3696 60.0307 90.3367 59.9999 90.3767 60.1051C87.9252 63.2363 85.3237 66.2679 82.8328 69.3728L82.8219 69.3664L82.7834 69.3758C82.5846 68.7774 82.7194 64.09 82.7203 63.0767C85.2233 61.9858 87.7746 61.0101 90.3098 59.9902Z" fill="white"/>
<path d="M73.1562 59.7495C75.7555 60.8598 78.4491 61.8525 81.0087 63.0324C81.0618 65.1558 81.0333 67.2924 80.9773 69.4157C80.1561 68.7268 79.0256 67.0783 78.2963 66.1742C76.5821 64.0498 74.7479 61.9546 73.1562 59.7495Z" fill="white"/>
<path d="M82.7378 46.9563C83.3295 47.4151 84.784 49.4602 85.355 50.1838L88.9402 54.7351C89.7364 55.7486 90.5784 56.7567 91.2696 57.8375C90.4189 58.2081 89.5338 58.528 88.669 58.8698C86.6765 59.6305 84.708 60.4536 82.7269 61.2415C82.6795 56.4831 82.6996 51.7148 82.7378 46.9563Z" fill="white"/>
<path d="M80.9621 46.6693C81.1798 47.6761 81.0195 50.0337 81.0178 51.1649C81.0128 54.5242 81.0397 57.8843 80.9945 61.2433L75.1421 58.8711C74.2565 58.4866 73.3568 58.1274 72.4639 57.7581C73.2163 56.3454 74.5431 54.8748 75.5488 53.5857L80.9621 46.6693Z" fill="white"/>
</g>
<defs>
<clipPath id="clip0_378_186">
<rect width="162" height="153" fill="white"/>
</clipPath>
</defs>
</svg>
